<?xml version="1.0" encoding="utf-8"?>
<svg viewBox="62.521 134.315 424.358 160" xmlns="http://www.w3.org/2000/svg">
  <path d="M 155.171 226.205 C 155.171 226.205 155.171 226.205 155.171 226.205 C 151.312 230.038 145.53 235.782 137.826 243.435 C 135.483 243.435 132.007 243.435 127.396 243.435 C 126.638 243.435 125.504 243.435 123.993 243.435 C 131.772 235.782 143.365 224.262 158.775 208.875 C 158.775 208.875 158.775 208.875 158.775 208.875 C 158.983 208.742 159.225 208.468 159.5 208.055 C 160.258 210.382 161.43 213.835 163.013 218.415 C 161.295 220.122 158.681 222.718 155.171 226.205 Z M 163.939 220.775 C 165.658 225.835 168.205 233.388 171.58 243.435 C 169.654 243.435 166.765 243.435 162.912 243.435 C 162.362 243.435 161.604 243.435 160.637 243.435 C 159.603 240.155 158.057 235.232 155.996 228.665 C 157.781 226.892 160.429 224.262 163.939 220.775 Z M 138.339 225.905 C 134.97 229.252 129.946 234.275 123.269 240.975 C 127.262 228.462 133.285 209.662 141.339 184.575 C 143.742 184.575 147.285 184.575 151.97 184.575 C 153.553 189.228 155.859 196.202 158.886 205.495 C 157.161 207.202 154.58 209.765 151.144 213.185 C 150.11 209.972 148.594 205.118 146.594 198.625 C 144.742 204.712 141.99 213.805 138.339 225.905 Z M 221.231 244.055 C 214.693 237.355 204.888 227.272 191.815 213.805 C 191.815 210.865 191.815 206.422 191.815 200.475 C 198.351 207.242 208.157 217.325 221.231 230.725 C 221.231 233.732 221.231 238.175 221.231 244.055 Z M 203.17 208.775 C 203.17 205.562 203.17 200.675 203.17 194.115 C 199.861 194.115 194.939 194.115 188.402 194.115 C 188.402 205.122 188.402 221.595 188.402 243.535 C 186.268 243.535 183.07 243.535 178.808 243.535 C 178.808 230.415 178.808 210.798 178.808 184.685 C 186.304 184.685 197.589 184.685 212.664 184.685 C 212.664 184.752 212.664 184.818 212.664 184.885 C 212.664 192.405 212.664 203.652 212.664 218.625 C 210.529 216.432 207.364 213.148 203.17 208.775 Z M 227.523 235.125 C 227.523 223.918 227.523 207.068 227.523 184.575 C 236.267 184.575 249.448 184.575 267.066 184.575 C 267.066 184.575 267.066 184.645 267.066 184.785 C 267.066 186.905 267.066 190.082 267.066 194.315 C 267.066 196.162 267.066 198.932 267.066 202.625 C 264.864 204.812 261.595 208.058 257.26 212.365 C 257.26 208.332 257.26 202.315 257.26 194.315 C 252.851 194.315 246.243 194.315 237.439 194.315 C 237.439 202.728 237.439 215.308 237.439 232.055 C 235.237 234.242 231.932 237.555 227.523 241.995 C 227.523 240.495 227.523 238.205 227.523 235.125 Z M 229.385 243.435 C 237.713 235.095 250.274 222.585 267.066 205.905 C 267.066 208.978 267.066 213.592 267.066 219.745 C 261.763 225.012 253.813 232.908 243.217 243.435 C 240.807 243.435 237.16 243.435 232.274 243.435 C 231.656 243.435 230.694 243.435 229.385 243.435 Z M 305.363 226.205 C 305.363 226.205 305.363 226.205 305.363 226.205 C 301.503 230.038 295.721 235.782 288.017 243.435 C 285.675 243.435 282.198 243.435 277.588 243.435 C 276.829 243.435 275.695 243.435 274.185 243.435 C 281.963 235.782 293.557 224.262 308.967 208.875 C 308.967 208.875 308.967 208.875 308.967 208.875 C 309.174 208.742 309.416 208.468 309.691 208.055 C 310.449 210.382 311.62 213.835 313.205 218.415 C 311.486 220.122 308.872 222.718 305.363 226.205 Z M 314.131 220.775 C 315.848 225.835 318.395 233.388 321.772 243.435 C 319.845 243.435 316.956 243.435 313.104 243.435 C 312.553 243.435 311.795 243.435 310.829 243.435 C 309.795 240.155 308.248 235.232 306.188 228.665 C 307.973 226.892 310.621 224.262 314.131 220.775 Z M 288.531 225.905 C 285.161 229.252 280.138 234.275 273.46 240.975 C 277.453 228.462 283.477 209.662 291.531 184.575 C 293.932 184.575 297.476 184.575 302.161 184.575 C 303.745 189.228 306.05 196.202 309.077 205.495 C 307.352 207.202 304.772 209.765 301.336 213.185 C 300.302 209.972 298.785 205.118 296.785 198.625 C 294.933 204.712 292.181 213.805 288.531 225.905 Z M 373.173 184.785 C 365.602 184.785 350.395 184.785 327.549 184.785 C 327.549 186.425 327.549 189.672 327.549 194.525 C 331.543 194.525 337.53 194.525 345.509 194.525 C 345.509 205.392 345.509 221.695 345.509 243.435 C 345.926 243.435 346.546 243.435 347.371 243.435 C 349.157 243.435 351.77 243.435 355.213 243.435 C 355.213 232.568 355.213 216.265 355.213 194.525 C 359.207 194.525 365.194 194.525 373.173 194.525 C 373.173 192.338 373.173 189.092 373.173 184.785 Z M 409.722 226.205 C 409.722 226.205 409.722 226.205 409.722 226.205 C 405.862 230.038 400.081 235.782 392.377 243.435 C 390.034 243.435 386.558 243.435 381.947 243.435 C 381.188 243.435 380.055 243.435 378.545 243.435 C 386.322 235.782 397.917 224.262 413.326 208.875 C 413.326 208.875 413.326 208.875 413.326 208.875 C 413.533 208.742 413.775 208.468 414.051 208.055 C 414.809 210.382 415.98 213.835 417.564 218.415 C 415.846 220.122 413.231 222.718 409.722 226.205 Z M 418.49 220.775 C 420.208 225.835 422.755 233.388 426.131 243.435 C 424.205 243.435 421.315 243.435 417.464 243.435 C 416.913 243.435 416.155 243.435 415.189 243.435 C 414.155 240.155 412.607 235.232 410.548 228.665 C 412.332 226.892 414.98 224.262 418.49 220.775 Z M 392.89 225.905 C 389.521 229.252 384.497 234.275 377.82 240.975 C 381.812 228.462 387.836 209.662 395.89 184.575 C 398.292 184.575 401.836 184.575 406.521 184.575 C 408.104 189.228 410.41 196.202 413.437 205.495 C 411.711 207.202 409.131 209.765 405.695 213.185 C 404.661 209.972 403.144 205.118 401.145 198.625 C 399.293 204.712 396.54 213.805 392.89 225.905 Z" style="line-height: 171.719px; white-space: pre; fill: rgb(0, 102, 153);"/>
  <g>
    <line style="stroke-width: 13px; stroke: rgb(242, 175, 0);" x1="109.936" y1="267" x2="221.936" y2="266"/>
    <line style="stroke-width: 13px; stroke: rgb(242, 175, 0);" x1="54.82" y1="225.147" x2="152.82" y2="224.147" transform="matrix(0, -1, 1, 0, -120.827, 328.467007)"/>
  </g>
  <g transform="matrix(-1, 0, 0, -1, 548.858826, 428.081848)">
    <line style="stroke-width: 13px; stroke: rgb(195, 41, 0);" x1="109.936" y1="267" x2="321.936" y2="266"/>
    <line style="stroke-width: 13px; stroke: rgb(195, 41, 0);" x1="54.82" y1="225.147" x2="152.82" y2="224.147" transform="matrix(0, -1, 1, 0, -120.827, 328.467007)"/>
  </g>
</svg>