<?xml version="1.0" standalone="no"?>
<!DOCTYPE svg PUBLIC "-//W3C//DTD SVG 1.1//EN" "http://www.w3.org/Graphics/SVG/1.1/DTD/svg11.dtd">
<svg xmlns="http://www.w3.org/2000/svg">
<defs >
<font id="ComicNeue" horiz-adv-x="498" ><font-face
    font-family="Comic Neue"
    units-per-em="1000"
    panose-1="2 0 0 0 0 0 0 0 0 0"
    ascent="900"
    descent="-250"
    alphabetic="0" />
<glyph unicode=" " glyph-name="space" horiz-adv-x="356" />
<glyph unicode="!" glyph-name="exclam" horiz-adv-x="261" d="M99 162T89 174T78 201Q78 208 79 211L165 619Q169 640 187 654T225 669Q242 669 253 659T264 631Q264 623 263 619L177 211Q172 191 155 177T117 162Q99 162 89 174ZM55 -6T44 6T32 37Q32 63 56
89T106 115Q125 115 136 102T148 71Q148 45 124 20T74 -6Q55 -6 44 6Z" />
<glyph unicode="&quot;" glyph-name="quotedbl" horiz-adv-x="336" d="M124 448T114 459T103 486Q103 493 104 496L130 618Q134 638 151 652T188 666Q209 666 219 650T226 618L200 496Q196 476 179 462T142 448Q124 448 114 459ZM272 448T262 459T251 486Q251
493 252 496L278 618Q282 638 299 652T336 666Q357 666 367 651T375 618L349 496Q345 476 328 462T290 448Q272 448 262 459Z" />
<glyph unicode="#" glyph-name="numbersign" horiz-adv-x="722" d="M118 -6T107 4T96 28Q96 35 99 42L166 185H91Q74 185 63 195T52 223Q52 245 71 263T112 281H215L266 384H174Q157 384 147 394T136 421Q136 444 154 462T195 480H316L391 631Q398 646 414 655T445
665Q464 665 474 656T484 630Q484 616 477 603L416 480H507L583 631Q592 647 606 656T636 665Q655 665 665 656T675 630Q675 619 669 605L607 480H669Q685 480 696 468T708 440Q708 419 689 402T648 384H558L508 281H586Q602 281 613 270T624 243Q624 221 606 203T565
185H459L380 28Q372 11 357 3T327 -6Q309 -6 298 4T286 29Q286 34 290 44L358 185H267L189 28Q181 11 166 3T135 -6Q118 -6 107 4ZM407 281L458 384H366L316 281H407Z" />
<glyph unicode="$" glyph-name="dollar" horiz-adv-x="601" d="M501 654T542 623T584 545Q584 510 567 488T522 466Q506 466 496 475T485 497Q485 501 486 506T488 518Q488 535 467 550T409 569L366 378Q441 351 479 315T518 225Q518 168 486 119T401 37T288 -5L284
-25Q280 -46 262 -59T225 -73Q210 -73 199 -64T188 -38Q188 -31 189 -27L194 -3Q123 10 76 52T28 148Q28 173 44 190T83 208Q102 208 113 198T126 172Q131 139 155 118T214 88L263 308Q199 332 161 368T123 463Q123 535 180 588T333 656L337 674Q341 695 357 708T394
722Q414 722 425 709T433 677L429 660Q501 654 542 623ZM221 455T236 440T284 409L315 564Q271 554 246 530T221 475Q221 455 236 440ZM420 228T404 245T345 280L306 87Q356 99 388 132T420 205Q420 228 404 245Z" />
<glyph unicode="%" glyph-name="percent" horiz-adv-x="678" d="M168 377T135 410T101 494Q101 538 127 579T194 645T281 670Q333 670 366 637T400 554Q400 509 374 468T306 402T219 377Q168 377 135 410ZM110 -6T100 3T90 28Q90 45 108 70L546 643Q564 666 591
666Q608 666 618 655T629 629Q629 612 614 593L173 18Q165 8 153 1T128 -6Q110 -6 100 3ZM264 472T283 491T303 535Q303 552 291 563T261 575Q237 575 218 556T198 513Q198 496 209 484T239 472Q264 472 283 491ZM380 -13T347 20T314 103Q314 148 339 188T407 254T495
279Q547 279 580 246T613 163Q613 119 588 78T520 12T433 -13Q380 -13 347 20ZM477 81T496 100T516 144Q516 161 505 173T475 185Q450 185 431 166T411 122Q411 105 423 93T453 81Q477 81 496 100Z" />
<glyph unicode="&amp;" glyph-name="ampersand" horiz-adv-x="626" d="M158 -6T119 13T56 67T32 147Q32 288 212 382Q183 436 183 485Q183 534 211 576T283 644T374 670Q409 670 438 653T485 608T502 546Q502 490 462 441T357 356L422 249L441 283Q451 302 463
311T493 320Q511 320 521 310T532 284Q532 270 521 246Q510 222 494 197T474 168L531 74Q537 64 537 53Q537 31 518 15T479 -2Q457 -2 446 15L403 85Q359 43 308 19T203 -6Q158 -6 119 13ZM356 451T381 474T406 528Q406 547 391 561T354 576Q325 576 302 556T279
507Q279 472 308 428Q356 451 381 474ZM291 89T357 159L263 310Q200 281 164 248T128 166Q128 130 158 110T223 89Q291 89 357 159Z" />
<glyph unicode="&apos;" glyph-name="quotesingle" horiz-adv-x="187" d="M114 448T104 459T93 486Q93 493 94 496L120 618Q124 638 141 652T178 666Q196 666 206 654T217 627Q217 621 216 618L190 496Q186 476 169 462T132 448Q114 448 104 459Z" />
<glyph unicode="(" glyph-name="parenleft" horiz-adv-x="357" d="M174 -104T161 -83Q131 -35 104 38T76 212Q76 360 146 497T325 722Q375 762 394 762Q411 762 422 751T433 723Q433 709 425 697T396 670Q334 623 284 552T204 398T175 233Q175 157 196 89T248
-21Q258 -35 258 -47Q258 -70 239 -87T198 -104Q174 -104 161 -83Z" />
<glyph unicode=")" glyph-name="parenright" horiz-adv-x="358" d="M-4 -104T-15 -94T-27 -66Q-27 -54 -20 -42T-2 -19Q59 33 110 107T191 266T221 431Q221 505 199 570T138 673Q124 687 124 703Q124 725 143 743T184 762Q201 762 219 741Q266 686 292 611T319
450Q319 300 247 165T57 -84Q35 -104 12 -104Q-4 -104 -15 -94Z" />
<glyph unicode="*" glyph-name="asterisk" horiz-adv-x="381" d="M139 438T131 446T122 467Q122 495 157 520Q187 542 213 553Q197 553 179 555T150 562Q121 572 121 596Q121 615 135 630T172 646Q190 646 210 630Q231 613 245 598Q238 618 238 642Q238 676 253
696T293 716Q309 716 317 707T325 681Q325 662 316 642T289 597Q346 644 379 644Q394 644 403 636T413 610Q413 592 400 577T364 558Q349 556 321 556Q314 555 299 555Q303 552 317 542T343 519Q358 504 358 487Q358 470 344 454T309 438Q278 438 267 471Q260 492
252 530Q242 513 211 472Q199 456 184 447T154 438Q139 438 131 446Z" />
<glyph unicode="+" glyph-name="plus" horiz-adv-x="440" d="M164 76T154 91T147 123L164 202H84Q67 202 56 212T45 239Q45 263 63 280T104 297H184L199 367Q203 387 220 400T256 414Q274 414 284 403T294 376Q294 370 293 367L278 297H359Q376 297 386 286T397
259Q397 237 379 220T339 202H258L241 123Q236 103 220 90T184 76Q164 76 154 91Z" />
<glyph unicode="," glyph-name="comma" horiz-adv-x="193" d="M-12 -84T-22 -75T-32 -51Q-32 -38 -25 -26L3 21Q0 30 0 38Q0 66 23 90T74 115Q92 115 104 104T116 75Q116 54 102 29Q77 -18 58 -46Q45 -66 33 -75T4 -84Q-12 -84 -22 -75Z" />
<glyph unicode="-" glyph-name="hyphen" horiz-adv-x="409" d="M68 204T57 215T46 242Q46 264 65 281T104 298H329Q346 298 356 288T367 260Q367 239 349 222T309 204H84Q68 204 57 215Z" />
<glyph unicode="." glyph-name="period" horiz-adv-x="171" d="M12 0T1 12T-11 43Q-11 72 12 96T63 121Q81 121 92 109T104 78Q104 49 82 25T31 0Q12 0 1 12Z" />
<glyph unicode="/" glyph-name="slash" horiz-adv-x="467" d="M4 -1T-7 10T-18 38Q-18 46 -14 55T-6 70L439 650Q448 662 460 668T486 674Q503 674 514 663T525 637Q525 628 521 618T512 602T507 594L69 24Q60 12 48 6T22 -1Q4 -1 -7 10Z" />
<glyph unicode="0" glyph-name="zero" horiz-adv-x="577" d="M147 -6T101 58T55 222Q55 321 103 425T228 597T390 666Q469 666 514 602T559 440Q559 340 512 236T388 63T226 -6Q147 -6 101 58ZM302 90T352 142T432 273T463 420Q463 486 438 528T369 570Q313 570
263 517T183 386T152 239Q152 174 177 132T246 90Q302 90 352 142Z" />
<glyph unicode="1" glyph-name="one" horiz-adv-x="400" d="M41 0T31 10T20 37Q20 60 38 78T79 96H139L227 484L186 449Q169 435 148 435Q131 435 120 446T109 474Q109 485 115 496T130 515L270 639Q292 657 311 657Q331 657 342 646T349 619L232 96H275Q295 96
305 86T316 59Q316 35 297 18T257 0H59Q41 0 31 10Z" />
<glyph unicode="2" glyph-name="two" horiz-adv-x="504" d="M29 143T83 209T251 339Q306 371 335 390T386 436T409 496Q409 525 386 543T326 561Q285 561 250 541T193 500Q181 489 172 484T147 478Q129 478 119 489T108 517Q108 535 119 548T152 579Q254 657 347
657Q420 657 463 618T507 517Q507 458 478 413T405 334T295 263Q220 221 180 184T120 95H381Q397 95 408 84T419 57Q419 33 401 17T361 0H1L9 40Q29 143 83 209Z" />
<glyph unicode="3" glyph-name="three" horiz-adv-x="499" d="M135 -6T95 12T29 60T3 124Q3 146 21 162T62 179Q90 179 98 153Q105 131 129 111T197 90Q235 90 267 108T320 159T340 229Q340 263 321 283T277 312T231 320Q214 320 203 331T192 358Q192 380 210
398T252 416Q280 416 312 431T366 470T388 514Q388 537 365 553T300 569Q268 569 245 561T196 538Q194 537 187 533T174 527T162 525Q143 525 134 535T124 561Q124 583 138 599T177 628Q206 644 243 655T320 666Q394 666 440 629T486 534Q486 486 458 444T386 371Q413
350 426 320T440 253Q440 184 404 125T307 30T178 -6Q135 -6 95 12Z" />
<glyph unicode="4" glyph-name="four" horiz-adv-x="475" d="M264 -6T254 6T243 33Q243 39 244 42L267 146L62 149Q43 149 33 159T23 185Q23 206 38 223L379 639Q398 662 424 662Q445 662 456 647T463 614L384 240H394Q411 240 421 230T431 204Q431 181 412 163T369
144H363L341 42Q337 23 319 9T282 -6Q264 -6 254 6ZM330 442L168 245L287 242L330 442Z" />
<glyph unicode="5" glyph-name="five" horiz-adv-x="550" d="M150 -6T100 28Q76 45 57 70T38 116Q38 142 56 159T97 177Q113 177 120 172T133 153Q149 122 173 107T234 91Q277 91 317 120T381 195T406 289Q406 331 384 358T316 385Q255 385 190 332Q171 317 151
317Q133 317 122 326T110 352Q110 358 114 372L189 611Q195 629 211 641T246 654H511Q527 654 538 643T550 614Q550 595 531 576T491 557H270L240 463Q286 481 336 481Q412 481 458 435T505 310Q505 230 463 157T354 39T214 -6Q150 -6 100 28Z" />
<glyph unicode="6" glyph-name="six" horiz-adv-x="528" d="M144 -6T94 35T44 168Q44 272 98 378T241 557Q290 598 344 629T423 661Q439 661 449 651T460 625Q460 609 450 594T423 572Q308 525 233 431Q278 446 325 446Q396 446 439 407T483 296Q483 223 447 153T351
38T220 -6Q144 -6 94 35ZM280 88T314 116T368 188T388 274Q388 312 367 332T305 352Q230 352 159 299Q150 273 145 242T139 188Q139 137 166 113T240 88Q280 88 314 116Z" />
<glyph unicode="7" glyph-name="seven" horiz-adv-x="456" d="M45 -5T34 6T23 31Q23 47 37 68L384 552H134Q117 552 106 562T95 590Q95 612 114 630T155 648H482Q499 648 509 637T520 610Q520 598 510 578L110 21Q91 -5 62 -5Q45 -5 34 6Z" />
<glyph unicode="8" glyph-name="eight" horiz-adv-x="518" d="M123 -6T76 35T28 142Q28 207 67 262T169 354Q122 389 122 446Q122 504 154 554T241 635T355 666Q425 666 466 631T507 535Q507 480 478 436T397 360Q458 309 458 232Q458 169 423 114T328 27T202
-6Q123 -6 76 35ZM411 451T411 516Q411 540 390 554T334 569Q309 569 283 557T238 523T220 472Q220 451 237 436T294 408Q411 451 411 516ZM258 90T290 105T341 147T361 210Q361 244 338 269T278 307Q214 285 170 248T125 161Q125 130 152 110T222 90Q258 90 290
105Z" />
<glyph unicode="9" glyph-name="nine" horiz-adv-x="529" d="M124 -6T114 3T103 31Q103 48 114 62T140 83Q196 105 244 141T330 224Q285 209 238 209Q167 209 124 248T80 359Q80 441 118 510T217 620T343 661Q420 661 470 621T521 491Q521 391 469 287T336 109Q291
68 230 31T142 -6Q124 -6 114 3ZM303 303T341 319T403 356Q412 379 418 412T425 467Q425 517 399 542T323 567Q286 567 252 541T196 472T175 382Q175 343 196 323T258 303Q303 303 341 319Z" />
<glyph unicode=":" glyph-name="colon" horiz-adv-x="197" d="M105 319T94 331T82 362Q82 390 105 415T156 440Q174 440 186 428T198 397Q198 368 174 344T124 319Q105 319 94 331ZM9 -6T-2 6T-13 36Q-13 66 11 90T61 115Q79 115 90 103T101 73Q101 42 78 18T28
-6Q9 -6 -2 6Z" />
<glyph unicode=";" glyph-name="semicolon" horiz-adv-x="236" d="M134 319T123 331T112 361Q112 390 135 415T186 440Q205 440 216 428T227 397Q227 368 204 344T153 319Q134 319 123 331ZM-12 -84T-22 -75T-32 -51Q-32 -38 -25 -26L3 21Q0 30 0 38Q0 66 23 90T74
115Q92 115 104 104T116 75Q116 54 102 29Q77 -18 58 -46Q45 -66 33 -75T4 -84Q-12 -84 -22 -75Z" />
<glyph unicode="&lt;" glyph-name="less" horiz-adv-x="453" d="M304 7T293 15L45 204Q28 217 28 237Q28 270 60 288L402 481Q421 492 436 492Q453 492 464 481T475 454Q475 439 467 425T443 403L159 242L357 90Q371 79 371 61Q371 38 355 23T318 7Q304 7 293 15Z" />
<glyph unicode="=" glyph-name="equal" horiz-adv-x="466" d="M96 292T86 302T75 328Q75 352 93 369T133 387H393Q409 387 420 376T432 347Q432 328 413 310T373 292H113Q96 292 86 302ZM57 112T47 122T36 149Q36 171 54 189T94 207H354Q370 207 381 196T393 168Q393
146 374 129T334 112H74Q57 112 47 122Z" />
<glyph unicode="&gt;" glyph-name="greater" horiz-adv-x="449" d="M17 7T6 18T-6 47Q-6 62 3 74T26 95L293 250L78 407Q64 418 64 437Q64 461 81 476T119 492Q132 492 143 484L409 288Q423 278 423 256Q423 242 415 229T392 207L70 20Q48 7 33 7Q17 7 6 18Z" />
<glyph unicode="?" glyph-name="question" horiz-adv-x="489" d="M134 159T124 169T113 197Q113 212 124 225T164 260L281 345Q336 389 367 429T399 508Q399 546 373 571T290 597Q255 597 227 581T174 542Q151 522 131 522Q115 522 104 532T92 558Q92 575 102
588T128 616Q163 647 210 669T310 691Q395 691 444 648T494 531Q494 451 455 397T350 293L219 194Q190 173 176 166T150 159Q134 159 124 169ZM69 0T58 12T46 43Q46 73 70 97T120 121Q138 121 149 109T161 79Q161 49 138 25T88 0Q69 0 58 12Z" />
<glyph unicode="@" glyph-name="at" horiz-adv-x="777" d="M547 346T538 333T515 313Q531 302 531 280Q531 268 522 250Q521 248 516 236T511 210Q511 191 522 180T552 169Q585 169 608 194T643 258T655 335Q655 420 604 468T465 516Q376 516 300 471T179 350T133
184Q133 84 190 37T352 -11Q423 -11 480 23Q498 33 506 36T522 39Q540 39 552 28T564 0Q564 -17 553 -31T516 -60Q484 -78 435 -90T327 -103Q240 -103 174 -71T72 21T36 165Q36 282 98 384T263 549T486 611Q561 611 622 577T718 485T753 356Q753 279 724 216T645
116T540 80Q500 80 471 101T433 153Q376 93 316 93Q271 93 242 121T212 204Q212 254 244 307T329 394T436 429Q487 429 518 406Q535 393 541 384T547 361Q547 346 538 333ZM453 304T473 314L460 323Q458 324 451 329T435 337T417 340Q391 340 366 322T325 276T309
218Q309 187 337 187Q357 187 387 217T441 284Q453 304 473 314Z" />
<glyph unicode="A" glyph-name="A" horiz-adv-x="552" d="M425 -7T414 3T401 33L373 235L159 190L59 26Q39 -6 7 -6Q-11 -6 -22 5T-34 34Q-34 47 -26 61L41 171L37 173Q15 183 15 208Q15 229 29 245T65 267L103 275L331 651Q340 665 355 673T385 682Q401 682 411
674T424 649L501 70Q502 65 502 57Q502 28 486 11T445 -7Q425 -7 414 3ZM359 328L340 489L225 300L359 328Z" />
<glyph unicode="B" glyph-name="B" horiz-adv-x="611" d="M31 -8T31 29Q31 33 33 45L155 621Q159 641 177 655T214 670H384Q480 670 528 630T577 523Q577 483 556 440T500 368Q573 331 573 252Q573 115 436 54T77 -8Q31 -8 31 29ZM395 399T420 415T460 457T475
504Q475 536 447 554T363 573H244L208 399H366Q395 399 420 415ZM294 94T382 126T471 224Q471 258 440 280T353 302H187L142 89Q294 94 382 126Z" />
<glyph unicode="C" glyph-name="C" horiz-adv-x="583" d="M209 -8T156 22T73 105T43 227Q43 321 103 427T257 604T440 676Q475 676 505 667T557 642Q573 653 588 653Q605 653 616 642T627 614Q627 607 626 603L610 543Q604 522 588 508T548 493Q531 493 520 505T512
534L513 539Q482 579 420 579Q358 579 294 524T188 389T146 245Q146 172 189 131T299 89Q397 89 476 171Q496 191 519 191Q536 191 548 180T560 151Q560 130 543 111Q487 54 419 23T278 -8Q209 -8 156 22Z" />
<glyph unicode="D" glyph-name="D" horiz-adv-x="626" d="M127 -15T59 2Q47 5 39 16T30 42Q30 48 31 51L156 636Q160 657 177 671T216 685Q332 685 419 653T556 556T605 400Q605 279 550 185T397 38T175 -15Q127 -15 59 2ZM289 83T358 119T464 221T502 375Q502
475 432 525T245 585L140 89Q172 83 197 83Q289 83 358 119Z" />
<glyph unicode="E" glyph-name="E" horiz-adv-x="596" d="M52 0T41 13T33 46L155 620Q160 641 177 655T215 670H614Q632 670 643 659T654 631Q654 608 635 589T593 570H243L205 392H509Q527 392 537 382T548 354Q548 330 530 312T488 293H184L143 100H491Q509
100 519 89T530 61Q530 37 512 19T470 0H73Q52 0 41 13Z" />
<glyph unicode="F" glyph-name="F" horiz-adv-x="581" d="M52 -7T42 4T31 33Q31 40 32 43L155 620Q160 641 177 655T215 670H614Q632 670 643 659T654 631Q654 608 635 589T593 570H244L207 395H473Q491 395 501 384T512 355Q512 332 493 314T451 295H185L132
43Q128 22 110 8T71 -7Q52 -7 42 4Z" />
<glyph unicode="G" glyph-name="G" horiz-adv-x="706" d="M213 -7T159 27T76 120T48 249Q48 352 105 452T255 614T450 677Q529 677 580 645T655 570T677 492Q676 463 659 448T619 432Q602 432 591 439T577 467Q569 514 533 546T428 579Q358 579 294 533T191 416T151
273Q151 185 195 138T311 91Q375 91 430 124T520 217Q492 217 458 211L431 205Q411 200 399 200Q382 200 371 210T360 238Q360 259 372 274T405 298Q424 306 464 311T545 316Q600 316 652 299Q676 291 676 266Q676 245 664 229T634 206Q623 202 617 203Q569 110
482 52T289 -7Q213 -7 159 27Z" />
<glyph unicode="H" glyph-name="H" horiz-adv-x="715" d="M51 -6T40 9T32 43L157 626Q161 647 178 661T216 675Q234 675 246 664T258 636Q258 629 257 626L202 366L576 417L621 626Q625 647 643 661T681 675Q698 675 710 664T722 636Q722 629 721 626L597 43Q593
24 575 9T537 -6Q515 -6 504 9T497 43L555 316L180 265L132 43Q127 22 111 8T72 -6Q51 -6 40 9Z" />
<glyph unicode="I" glyph-name="I" horiz-adv-x="405" d="M12 0T1 11T-10 39Q-10 63 9 81T52 100H122L221 570H151Q133 570 122 581T111 610Q111 634 129 652T172 670H411Q429 670 440 660T451 632Q451 608 433 589T390 570H321L222 100H289Q308 100 319 90T330
62Q330 38 312 19T269 0H30Q12 0 1 11Z" />
<glyph unicode="J" glyph-name="J" horiz-adv-x="471" d="M80 -6T40 30T0 135Q0 178 16 202T65 227Q83 227 94 216T105 188Q105 182 103 172T101 153Q101 123 121 109T176 94Q216 94 241 113T274 165L360 571H269Q251 571 240 582T228 610Q228 633 247 651T290
670H481Q498 670 509 659T521 631Q521 610 506 593T472 573L460 571L374 165Q358 89 298 42T155 -6Q80 -6 40 30Z" />
<glyph unicode="K" glyph-name="K" horiz-adv-x="561" d="M433 -7T424 -2T406 12L171 239L131 43Q127 22 112 8T75 -6Q57 -6 45 7T32 41Q32 49 33 53L155 626Q160 650 174 662T210 675Q228 675 241 662T255 627Q255 623 253 613L212 432L524 657Q537 667 546 671T568
676Q585 676 597 663T609 633Q609 620 603 610T581 589L218 330L484 81Q502 64 502 43Q502 22 487 8T448 -7Q433 -7 424 -2Z" />
<glyph unicode="L" glyph-name="L" horiz-adv-x="499" d="M52 -7T40 8T32 43L156 627Q160 647 178 661T216 676Q237 676 248 661T255 627L142 96L414 114Q436 115 447 105T458 77Q458 54 440 36T401 16L74 -6Q52 -7 40 8Z" />
<glyph unicode="M" glyph-name="M" horiz-adv-x="805" d="M2 -6T-8 6T-18 35Q-18 46 -13 59L236 636Q243 654 259 664T293 675Q310 675 320 666T332 641L379 198L633 643Q652 675 690 675Q707 675 716 665T726 636L733 53Q733 26 719 10T680 -6Q661 -6 647 8T633
43L629 450L387 29Q367 -6 332 -6Q317 -6 306 4T293 31L249 435L77 34Q69 16 55 5T21 -6Q2 -6 -8 6Z" />
<glyph unicode="N" glyph-name="N" horiz-adv-x="652" d="M54 -6T42 6T30 34Q30 40 31 43L156 626Q161 647 177 661T214 675Q240 675 253 649L467 201L558 626Q563 647 580 661T618 676Q639 676 650 660T657 626L533 43Q529 23 514 9T477 -6Q447 -6 431 27L221
467L130 43Q126 22 109 8T70 -6Q54 -6 42 6Z" />
<glyph unicode="O" glyph-name="O" horiz-adv-x="634" d="M184 -8T139 22T70 105T46 226Q46 333 99 437T240 609T428 676Q489 676 534 646T603 563T627 442Q627 335 574 231T433 59T245 -8Q184 -8 139 22ZM327 87T387 135T487 262T527 423Q527 493 494 537T403
581Q346 581 286 533T186 406T146 245Q146 175 179 131T270 87Q327 87 387 135Z" />
<glyph unicode="P" glyph-name="P" horiz-adv-x="554" d="M50 -6T38 10T29 44L153 614Q159 641 166 652T195 670T263 676Q429 676 511 632T594 504Q594 414 530 351T368 254T168 217L131 43Q126 22 110 8T72 -6Q50 -6 38 10ZM255 319T324 336T443 389T492 479Q492
526 435 551T277 577H244L189 315Q255 319 324 336Z" />
<glyph unicode="Q" glyph-name="Q" horiz-adv-x="695" d="M609 50T609 34Q609 7 591 -10T549 -28Q531 -28 523 -21L448 44Q360 -8 271 -8Q202 -8 151 23T72 110T44 233Q44 339 105 441T262 609T460 674Q529 674 580 643T659 556T687 432Q687 348 647 263T538 112L596
62Q609 50 609 34ZM332 89T374 106L330 144Q315 157 315 171Q315 196 333 215T377 235Q396 235 407 225L470 171Q520 218 550 281T580 406Q580 478 540 527T432 577Q362 577 297 529T191 404T150 252Q150 180 188 135T292 89Q332 89 374 106Z" />
<glyph unicode="R" glyph-name="R" horiz-adv-x="583" d="M596 430T541 365T388 270Q458 224 503 124Q526 73 526 51Q526 29 508 12T466 -6Q438 -6 427 21Q348 227 235 227Q205 227 167 221L129 43Q125 22 108 8T70 -6Q51 -6 40 4T29 32Q29 39 30 43L154 621Q161
655 177 668T230 681H282Q420 681 508 641T596 506Q596 430 541 365ZM262 318T333 337T449 393T494 482Q494 533 435 559T264 586H244L187 318Q262 318 333 337Z" />
<glyph unicode="S" glyph-name="S" horiz-adv-x="546" d="M167 -6T116 15T34 73T3 153Q3 179 20 196T59 214Q79 214 90 204T103 177Q109 132 149 109T243 86Q286 86 323 103T381 150T403 211Q403 240 377 261T276 305Q197 330 149 367T100 474Q100 530 135 576T234
649T382 676Q469 676 519 643T570 558Q570 522 553 500T507 477Q491 477 480 486T469 509Q469 513 470 518T472 530Q472 552 443 568T360 584Q286 584 243 557T200 487Q200 458 231 438T338 391Q419 364 461 326T503 232Q503 168 464 113T360 26T227 -6Q167 -6
116 15Z" />
<glyph unicode="T" glyph-name="T" horiz-adv-x="518" d="M197 -6T186 9T178 43L290 576H122Q105 576 94 586T83 614Q83 635 101 652T143 670H557Q575 670 586 660T597 632Q597 612 578 594T536 576H389L277 43Q273 22 255 8T218 -6Q197 -6 186 9Z" />
<glyph unicode="U" glyph-name="U" horiz-adv-x="669" d="M171 -6T119 61T67 245Q67 301 80 371T122 576Q131 611 133 623Q138 643 153 659T196 675Q215 675 225 663T236 636Q236 630 235 627Q203 500 186 408T168 256Q168 86 292 86Q361 86 419 130T510 271Q530
333 544 391T574 530L594 625Q604 675 654 675Q677 675 686 662T693 628Q673 510 656 431T608 264Q564 137 481 66T271 -6Q171 -6 119 61Z" />
<glyph unicode="V" glyph-name="V" horiz-adv-x="538" d="M184 -6T173 2T160 27L87 607Q83 634 102 654T149 674Q164 674 175 666T188 640L245 187L521 643Q530 658 544 666T574 674Q592 674 603 663T614 635Q614 621 605 607L252 25Q233 -6 200 -6Q184 -6 173 2Z" />
<glyph unicode="W" glyph-name="W" horiz-adv-x="847" d="M159 -6T151 4T140 33L87 604Q84 634 101 654T146 675Q164 675 174 666T187 640L226 209L457 638Q477 675 513 675Q549 675 552 640L579 208L833 651Q854 686 889 686Q906 686 917 677T928 652Q928 632
915 610L580 26Q572 11 559 3T529 -6Q491 -6 488 30L461 452L234 28Q223 8 210 1T179 -6Q159 -6 151 4Z" />
<glyph unicode="X" glyph-name="X" horiz-adv-x="622" d="M-7 -6T-18 5T-29 34Q-29 44 -24 55T-10 75L269 340L120 595Q114 606 114 617Q114 640 134 657T176 675Q186 675 195 671T210 657L351 418L602 657Q622 675 644 675Q661 675 673 663T685 634Q685 624 679
613T665 594L397 339L551 73Q556 63 556 54Q556 33 538 14T496 -6Q470 -6 459 14L314 260L52 12Q41 2 32 -2T12 -6Q-7 -6 -18 5Z" />
<glyph unicode="Y" glyph-name="Y" horiz-adv-x="582" d="M116 -6T105 5T94 34Q94 52 109 71L236 225L96 602Q92 611 92 620Q92 644 108 659T144 675Q157 675 167 669T181 650L306 315L576 651Q596 675 624 675Q640 675 652 664T664 636Q664 616 646 594L182 19Q162
-6 134 -6Q116 -6 105 5Z" />
<glyph unicode="Z" glyph-name="Z" horiz-adv-x="576" d="M-3 0T-14 10T-25 40Q-25 67 -2 90L484 567H148Q131 567 120 578T108 608Q108 633 128 651T170 670H597Q616 670 628 658T641 628Q641 603 621 584L132 102H468Q486 102 497 91T509 63Q509 40 491 20T447
0H20Q-3 0 -14 10Z" />
<glyph unicode="[" glyph-name="bracketleft" horiz-adv-x="325" d="M14 -113T4 -103T-6 -76Q-6 -68 -5 -64L164 729Q169 749 186 763T222 778H346Q362 778 373 767T384 739Q384 716 366 699T325 681H249L101 -16H163Q179 -16 190 -27T202 -56Q202 -78 183 -95T142
-113H32Q14 -113 4 -103Z" />
<glyph unicode="\" glyph-name="backslash" horiz-adv-x="457" d="M310 -1T301 24L105 594Q101 606 101 617Q101 640 120 657T160 674Q188 674 197 650L392 78Q397 64 397 60Q397 38 379 19T336 -1Q310 -1 301 24Z" />
<glyph unicode="]" glyph-name="bracketright" horiz-adv-x="324" d="M0 -113T-11 -102T-22 -74Q-22 -52 -4 -34T37 -16H113L261 681H199Q183 681 172 693T160 721Q160 746 178 762T220 778H330Q348 778 358 767T368 740Q368 733 367 729L199 -64Q195 -83 178
-98T140 -113H16Q0 -113 -11 -102Z" />
<glyph unicode="^" glyph-name="asciicircum" horiz-adv-x="387" d="M90 359T80 369T69 395Q69 415 82 431L234 619Q258 648 289 648Q307 648 316 640T331 615L381 436Q386 420 386 409Q386 391 368 375T329 359Q301 359 296 385L264 541L154 384Q136 359 107
359Q90 359 80 369Z" />
<glyph unicode="_" glyph-name="underscore" horiz-adv-x="590" d="M-16 -96T-27 -86T-38 -59Q-38 -35 -20 -18T20 0H465Q482 0 493 -11T504 -39Q504 -61 486 -78T445 -96H0Q-16 -96 -27 -86Z" />
<glyph unicode="`" glyph-name="grave" horiz-adv-x="262" d="M271 528T254 543L123 654Q98 675 98 701Q98 720 110 733T142 746Q154 746 167 740T191 724L311 605Q321 595 325 587T330 567Q330 551 319 540T291 528Q271 528 254 543Z" />
<glyph unicode="a" glyph-name="a" horiz-adv-x="508" d="M109 -6T68 37T26 153Q26 233 69 312T184 442T332 493Q378 493 413 481T483 450L395 34Q390 11 374 -2T337 -16Q320 -16 310 -7T299 19Q299 26 300 30L303 44Q274 19 242 7T179 -6Q109 -6 68 37ZM234 86T263
98T317 128L375 389Q348 401 315 401Q268 401 224 365T152 275T124 170Q124 125 144 106T203 86Q234 86 263 98Z" />
<glyph unicode="b" glyph-name="b" horiz-adv-x="526" d="M45 -5T34 8T27 40L151 621Q155 641 171 653T208 666Q228 666 239 652T246 621L205 430Q239 457 278 471T358 485Q429 485 464 443T499 329Q499 280 482 223T437 123Q401 66 347 33T228 0Q194 0 163 10T114
32L112 24Q109 11 95 3T64 -5Q45 -5 34 8ZM273 90T304 108T360 164Q379 194 391 235T403 308Q403 395 327 395Q275 395 230 362T174 284L137 111Q184 90 229 90Q273 90 304 108Z" />
<glyph unicode="c" glyph-name="c" horiz-adv-x="471" d="M162 -6T119 16T52 77T27 168Q27 240 71 316T184 443T319 494Q403 494 445 438Q461 416 461 400Q461 378 443 361T402 343Q382 343 373 355Q357 380 341 391T299 403Q262 403 221 367T151 280T123 185Q123
140 153 112T221 84Q260 84 289 99T344 141Q355 152 366 159T392 166Q408 166 419 156T430 129Q430 117 424 106T411 88Q374 49 320 22T214 -6Q162 -6 119 16Z" />
<glyph unicode="d" glyph-name="d" horiz-adv-x="524" d="M104 -5T66 37T27 155Q27 238 63 316T163 443T306 492Q363 492 406 462L446 624Q451 644 468 658T506 673Q524 673 533 662T544 634Q544 630 542 622L405 40Q400 20 383 7T346 -6Q328 -6 318 4T308 30Q308
38 309 42L314 62Q285 32 246 14T166 -5Q104 -5 66 37ZM228 85T260 100T315 139T343 187L386 371Q370 383 345 392T293 402Q242 402 204 368T145 279T125 170Q125 128 143 107T193 85Q228 85 260 100Z" />
<glyph unicode="e" glyph-name="e" horiz-adv-x="492" d="M141 -6T86 44T31 182Q31 259 71 331T177 448T317 493Q372 493 408 473T462 422T479 364Q479 343 469 329T438 303L137 149Q141 118 173 101T245 84Q310 84 360 127Q380 143 397 143Q414 143 424 134T435
109Q435 95 430 85T412 64Q380 35 329 15T233 -6Q141 -6 86 44ZM375 383T355 394T305 405Q241 405 186 350Q160 324 145 291T127 232L382 361Q375 383 355 394Z" />
<glyph unicode="f" glyph-name="f" horiz-adv-x="322" d="M65 -6T53 8T45 40L122 402H76Q60 402 50 413T39 440Q39 459 57 476T95 493H143Q167 589 223 628T384 667Q434 667 434 635Q434 610 417 592T375 574Q330 574 306 569T265 546T239 493L341 492Q355 492
366 482T377 457Q377 437 359 420T321 402H218L141 40Q137 22 120 8T84 -6Q65 -6 53 8Z" />
<glyph unicode="g" glyph-name="g" horiz-adv-x="517" d="M85 -174T29 -160Q16 -157 9 -147T1 -123Q1 -101 19 -83T60 -65Q74 -65 97 -70Q133 -78 163 -78Q216 -78 249 -52T298 29L304 49Q248 3 189 3Q118 3 74 48T29 174Q29 253 72 327T185 448T329 494Q370 494
408 473Q415 487 427 495T454 504Q476 504 486 496T497 470Q497 458 495 451L397 33Q373 -69 306 -121T144 -174Q85 -174 29 -160ZM256 97T296 138T354 259L380 380Q368 388 349 393T312 398Q266 398 222 370T150 295T122 194Q122 148 143 123T202 97Q256 97 296
138Z" />
<glyph unicode="h" glyph-name="h" horiz-adv-x="529" d="M46 -7T35 7T27 41L150 617Q155 637 172 651T208 666Q226 666 236 655T247 627Q247 620 246 617L198 392Q235 436 285 465T379 495Q430 495 454 462T478 359Q478 305 460 205T422 38Q416 19 401 7T366
-6Q347 -6 337 4T327 30Q327 37 328 40L340 94Q361 185 371 239T381 339Q381 373 374 386T349 400Q313 400 269 360T194 279Q178 257 170 237T156 192L124 43Q119 20 102 7T65 -7Q46 -7 35 7Z" />
<glyph unicode="i" glyph-name="i" horiz-adv-x="243" d="M169 535T158 545T147 572Q147 576 149 584L158 621Q162 640 180 654T216 668Q232 668 243 657T254 629Q254 623 253 620L243 582Q238 562 222 549T185 535Q169 535 158 545ZM49 -6T38 5T26 33Q26 39 27
43L116 441Q120 461 138 475T176 490Q194 490 204 480T215 452Q215 445 214 441L125 43Q121 23 104 9T66 -6Q49 -6 38 5Z" />
<glyph unicode="j" glyph-name="j" horiz-adv-x="281" d="M206 543T195 553T184 579Q184 583 186 593L199 636Q204 653 220 664T255 676Q274 676 284 665T294 638Q294 633 292 625L279 582Q274 565 258 554T221 543Q206 543 195 553ZM-45 -170T-74 -149T-121 -93T-138
-19Q-138 6 -121 22T-81 39Q-45 39 -42 5Q-39 -30 -27 -54T8 -79Q28 -79 40 -57T62 10L150 446Q155 467 171 481T208 495Q226 495 238 480T247 447L158 15Q140 -73 97 -121T-9 -170Q-45 -170 -74 -149Z" />
<glyph unicode="k" glyph-name="k" horiz-adv-x="488" d="M49 -6T38 9T30 42L150 619Q154 638 172 652T209 666Q227 666 237 655T248 627Q248 620 247 617L179 293Q228 328 296 386T414 490Q434 510 457 510Q474 510 484 500T495 475Q495 452 471 428Q440 397
393 356T308 285L427 83Q437 66 437 53Q437 31 419 14T377 -3Q352 -3 340 20Q274 141 224 227Q217 222 158 187L127 42Q123 23 106 9T68 -6Q49 -6 38 9Z" />
<glyph unicode="l" glyph-name="l" horiz-adv-x="237" d="M47 -6T36 9T27 39L151 619Q156 639 172 652T209 666Q229 666 240 651T247 619L124 39Q120 21 102 8T67 -6Q47 -6 36 9Z" />
<glyph unicode="m" glyph-name="m" horiz-adv-x="796" d="M48 -6T37 4T26 31Q26 38 27 41L113 445Q117 464 134 478T171 493Q191 493 202 479T209 445L194 375Q282 493 384 493Q425 493 450 469T479 397Q563 493 655 493Q704 493 730 464T757 375Q757 339 749
303L693 41Q689 22 672 8T635 -6Q618 -6 607 4T596 31Q596 38 597 41L654 309Q659 330 659 352Q659 377 650 389T619 401Q590 401 556 378T496 315T458 227L419 41Q414 21 398 8T361 -6Q344 -6 333 4T322 31Q322 38 323 41L380 309Q386 338 386 356Q386 379 378
390T350 401Q318 401 282 376T215 314Q168 255 153 188L123 41Q119 22 102 8T65 -6Q48 -6 37 4Z" />
<glyph unicode="n" glyph-name="n" horiz-adv-x="543" d="M46 -6T35 8T27 40L113 446Q117 466 135 480T173 494Q189 494 199 484T210 457Q210 450 209 446L193 370Q234 430 283 461T384 493Q442 493 469 465T497 369Q497 307 477 217L439 42Q435 23 419 9T383
-6Q364 -6 353 8T345 41L380 207Q399 296 399 340Q399 374 388 387T355 400Q325 400 290 375T218 302Q187 261 170 222T140 128L122 44Q118 22 103 8T65 -6Q46 -6 35 8Z" />
<glyph unicode="o" glyph-name="o" horiz-adv-x="516" d="M117 -6T73 43T28 171Q28 247 71 322T183 446T325 494Q374 494 411 471T468 407T488 316Q488 240 445 165T333 42T191 -6Q117 -6 73 43ZM252 83T293 115T360 198T386 296Q386 343 363 374T302 405Q259
405 218 371T152 286T126 185Q126 140 148 112T209 83Q252 83 293 115Z" />
<glyph unicode="p" glyph-name="p" horiz-adv-x="522" d="M8 -183T-2 -168T-10 -135L113 445Q117 466 134 480T173 494Q190 494 200 484T209 459L207 445Q240 467 280 480T363 494Q426 494 461 451T496 331Q496 280 476 220T425 114Q388 62 335 32T210 1Q164 1
119 21L86 -135Q82 -155 65 -169T28 -183Q8 -183 -2 -168ZM316 98T362 170Q379 198 391 240T403 316Q403 359 387 381T342 404Q291 404 252 384T187 339L141 120Q192 98 237 98Q316 98 362 170Z" />
<glyph unicode="q" glyph-name="q" horiz-adv-x="515" d="M270 -178T261 -167T251 -140Q251 -136 253 -126L287 11Q248 -11 198 -11Q121 -11 73 33T25 156Q25 243 70 318T193 439T359 484Q383 484 406 478L409 484Q413 493 427 501T457 510Q474 510 484 501T495
475Q495 470 493 462L346 -130Q340 -154 324 -166T288 -178Q270 -178 261 -167ZM253 79T284 102T326 167L382 390Q360 393 339 393Q279 393 229 363T149 283T119 175Q119 132 144 106T209 79Q253 79 284 102Z" />
<glyph unicode="r" glyph-name="r" horiz-adv-x="403" d="M393 495T414 477T435 433Q435 421 432 401T424 367Q419 349 404 336T368 323Q350 323 340 332T330 355Q330 362 333 373T337 388Q337 400 322 400Q301 400 269 379T213 334Q180 301 169 244L124 40Q120
22 103 8T67 -6Q48 -6 36 8T27 40L113 445Q117 465 135 479T173 493Q195 493 204 480T211 449L206 422Q237 457 276 476T356 495Q393 495 414 477Z" />
<glyph unicode="s" glyph-name="s" horiz-adv-x="425" d="M119 -6T81 13T23 63T2 123Q2 145 20 162T60 180Q77 180 86 171T97 147Q100 116 122 98T184 80Q224 80 251 101T279 148Q279 169 262 181T199 209Q133 231 103 261T73 336Q73 381 101 417T175 473T275
493Q349 493 386 467T424 390Q424 351 405 328T358 304Q340 304 330 314T319 340Q319 347 325 358T331 377Q331 409 261 409Q215 409 192 394T168 355Q168 335 185 322T255 291Q320 269 348 243T376 171Q376 125 348 84T271 19T168 -6Q119 -6 81 13Z" />
<glyph unicode="t" glyph-name="t" horiz-adv-x="339" d="M96 -7T85 7T77 40L153 401H69Q51 401 41 412T30 439Q30 460 49 476T92 492H174L197 601Q201 620 218 635T255 650Q273 650 283 639T294 611Q294 604 293 601L270 492H355Q372 492 382 482T393 456Q393
434 375 418T334 401H249L173 40Q169 20 152 7T115 -7Q96 -7 85 7Z" />
<glyph unicode="u" glyph-name="u" horiz-adv-x="517" d="M97 -9T70 19T42 113Q42 175 62 270T109 443Q126 494 167 494Q186 494 196 485T206 460Q206 455 202 439Q176 355 158 280T139 147Q139 113 149 97T181 81Q216 81 253 97T307 127Q320 136 325 143T332
163L395 448Q399 468 415 481T452 494Q472 494 483 481T490 448L404 42Q400 22 383 8T346 -6Q328 -6 316 5T305 33L306 49Q282 24 241 8T152 -9Q97 -9 70 19Z" />
<glyph unicode="v" glyph-name="v" horiz-adv-x="426" d="M123 -7T117 26L42 408Q41 413 39 422T37 438Q37 460 56 476T98 493Q130 493 136 461L190 163L373 464Q381 478 395 486T425 494Q443 494 453 484T464 457Q464 444 453 426L206 23Q187 -7 154 -7Q123 -7 117 26Z" />
<glyph unicode="w" glyph-name="w" horiz-adv-x="597" d="M54 -8T54 33L55 443Q55 463 73 479T113 496Q132 496 141 485T151 455L148 201L293 459Q302 475 317 485T349 495Q388 495 389 459L395 196L531 457Q539 474 554 484T586 495Q603 495 614 485T625 458Q625
446 617 430L403 30Q382 -8 350 -8Q332 -8 322 3T310 37L299 293L147 29Q125 -8 94 -8Q54 -8 54 33Z" />
<glyph unicode="x" glyph-name="x" horiz-adv-x="480" d="M347 -6T336 12L231 183L27 9Q11 -5 -11 -5Q-27 -5 -38 6T-49 34Q-49 59 -27 78L183 253L83 413Q75 426 75 437Q75 458 92 476T130 494Q152 494 162 478L260 313L450 477Q468 492 488 492Q504 492 515
481T527 452Q527 441 521 430T505 411L307 247L411 81Q422 64 422 49Q422 28 406 11T370 -6Q347 -6 336 12Z" />
<glyph unicode="y" glyph-name="y" horiz-adv-x="459" d="M30 -185T19 -175T8 -147Q8 -136 11 -128T24 -106L143 72L49 403Q42 428 42 436Q42 459 61 476T102 494Q116 494 126 485T139 464L219 185L406 464Q416 479 430 487T459 495Q476 495 487 484T498 456Q498
441 488 426L98 -154Q89 -167 76 -176T46 -185Q30 -185 19 -175Z" />
<glyph unicode="z" glyph-name="z" horiz-adv-x="430" d="M-18 -6T-28 4T-38 30Q-38 54 -21 71L310 395H96Q79 395 69 405T58 432Q58 454 76 470T117 487H424Q443 487 453 477T463 449Q463 427 445 409L114 85H342Q359 85 370 74T381 46Q381 26 362 10T322 -6H1Q-18
-6 -28 4Z" />
<glyph unicode="{" glyph-name="braceleft" horiz-adv-x="377" d="M195 -119T173 -112T134 -93Q111 -78 97 -54T83 1Q83 17 91 59T109 145Q128 229 128 241Q128 259 119 272T95 291Q72 300 72 321Q72 343 81 355T111 377Q142 391 155 407T174 446L210 618Q225
686 288 732Q314 751 349 762T403 774Q420 774 429 764T439 737Q439 714 425 699T386 679Q314 665 304 618L268 447Q254 379 202 334Q224 298 224 251Q224 234 200 128Q180 34 180 26Q180 4 197 -8T238 -24Q253 -27 261 -37T270 -61Q270 -85 252 -102T210 -119Q195
-119 173 -112Z" />
<glyph unicode="|" glyph-name="bar" horiz-adv-x="218" d="M6 -159T-5 -148T-17 -120Q-17 -113 -16 -110L168 754Q172 774 190 788T227 802Q244 802 255 792T266 764Q266 758 265 754L81 -110Q77 -131 60 -145T23 -159Q6 -159 -5 -148Z" />
<glyph unicode="}" glyph-name="braceright" horiz-adv-x="377" d="M-10 -119T-19 -109T-29 -82Q-29 -59 -15 -44T24 -24Q96 -9 106 37L142 208Q156 276 208 321Q186 357 186 399Q186 423 210 525Q212 535 221 575T230 629Q230 651 213 663T172 679Q157 682 149
692T140 716Q140 741 157 757T200 774Q216 774 240 766T279 746Q327 713 327 653Q327 634 302 517Q282 432 282 414Q282 396 291 383T315 364Q338 356 338 333Q338 311 328 299T299 278Q268 264 255 248T236 209L200 37Q189 -14 156 -47T87 -97Q35 -119 7 -119Q-10
-119 -19 -109Z" />
<glyph unicode="~" glyph-name="asciitilde" horiz-adv-x="576" d="M323 136T303 148T271 176T244 222Q230 248 221 259T198 271Q176 271 155 249T118 201Q99 167 65 167Q49 167 39 177T28 203Q28 211 31 219T37 234T42 243Q68 294 115 329T218 365Q264 365 288
342T332 278Q344 253 353 242T376 231Q400 231 420 253T461 310Q472 328 486 338T516 348Q533 348 543 338T554 311Q554 295 545 279Q512 224 465 180T355 136Q323 136 303 148Z" />
<glyph unicode="&#xa0;" glyph-name="uni00A0" horiz-adv-x="356" />
<glyph unicode="&#xa1;" glyph-name="exclamdown" horiz-adv-x="257" d="M135 375T124 387T113 419Q113 449 137 472T187 496Q206 496 217 484T229 454Q229 426 205 401T154 375Q135 375 124 387ZM19 -179T8 -168T-4 -139Q-4 -132 -3 -129L84 279Q89 300 105 314T143
328Q164 328 175 314T182 279L95 -129Q90 -152 73 -165T35 -179Q19 -179 8 -168Z" />
<glyph unicode="&#xa2;" glyph-name="cent" horiz-adv-x="471" d="M382 466T372 476T348 492L273 181Q322 191 364 235Q375 246 386 253T412 260Q428 260 439 250T450 223Q450 211 444 200T431 182Q397 147 348 120T251 89L240 45Q235 25 221 13T190 0Q175 0 166
11T156 37Q156 43 157 46L169 98Q114 115 81 158T47 262Q47 325 81 392T171 510T286 580L298 628Q302 646 318 659T349 673Q363 673 373 664T383 639Q383 635 381 627L371 586Q432 577 465 532Q481 510 481 494Q481 472 463 455T422 437Q402 437 393 449Q382 466
372 476ZM143 250T156 228T192 192L261 477Q214 446 179 387T143 279Q143 250 156 228Z" />
<glyph unicode="&#xa3;" glyph-name="sterling" horiz-adv-x="658" d="M375 -6T347 5T289 39Q270 53 256 60T224 67Q205 67 184 57T135 29Q114 16 102 10T81 3Q64 3 53 14T42 41Q42 56 51 68T78 93Q112 118 139 162T167 248Q167 278 164 300H88Q71 300 60 311T49
338Q49 360 67 377T108 395H163Q166 490 203 561T305 670T454 708Q557 708 600 654T644 526Q644 501 628 484T586 466Q568 466 558 477T547 509Q547 558 519 585T435 613Q348 613 308 558T259 395H455Q472 395 482 385T493 357Q493 335 474 318T435 300H259Q261
288 261 277L260 245Q260 192 211 140Q214 142 223 147T243 155T268 158Q292 158 309 150T346 125Q369 107 388 98T438 88Q463 88 484 103T520 148Q541 191 576 191Q594 191 604 180T614 152Q614 136 602 113T574 73Q545 41 501 18T420 -6Q375 -6 347 5Z" />
<glyph unicode="&#xa4;" glyph-name="currency" horiz-adv-x="477" d="M13 40T3 51T-8 78Q-8 90 -2 101T13 119L76 171Q69 191 69 219Q69 247 80 278T112 333L70 386Q63 394 63 407Q63 432 80 448T119 464Q139 464 149 451L191 398Q231 418 275 418Q321 418 352
398L416 451Q432 464 451 464Q468 464 478 453T489 426Q489 403 468 386L403 332Q411 311 411 280Q411 224 371 171L411 119Q418 111 418 96Q418 74 399 57T361 40Q343 40 332 54L292 104Q247 83 204 83Q163 83 127 104L66 55Q48 40 29 40Q13 40 3 51ZM247 174T269
187T304 223T318 267Q318 293 301 309T256 326Q221 326 192 299T163 235Q163 209 180 192T223 174Q247 174 269 187Z" />
<glyph unicode="&#xa5;" glyph-name="yen" horiz-adv-x="494" d="M168 -6T157 7T149 42L164 116H81Q64 116 54 127T43 154Q43 175 61 192T101 210H184L194 256H111Q94 256 84 267T73 294Q73 315 91 332T131 350H181L159 428Q109 600 109 612Q109 632 127 650T169
668Q182 668 191 661T205 642L275 400L459 644Q468 656 480 663T506 670Q523 670 534 659T546 632Q546 613 531 593L346 350H393Q410 350 421 340T432 313Q432 291 414 274T373 256H290L280 210H363Q380 210 391 200T402 173Q402 151 384 134T343 116H260L245 42Q240
23 223 9T187 -6Q168 -6 157 7Z" />
<glyph unicode="&#xa6;" glyph-name="brokenbar" horiz-adv-x="208" d="M115 378T104 389T92 417Q92 424 93 427L148 684Q153 704 170 718T207 732Q224 732 235 721T246 694Q246 687 245 684L190 427Q186 406 169 392T132 378Q115 378 104 389ZM16 -89T5 -78T-7
-50Q-7 -43 -6 -40L49 217Q53 237 71 251T108 265Q129 265 139 251T146 217L91 -40Q87 -61 70 -75T33 -89Q16 -89 5 -78Z" />
<glyph unicode="&#xa7;" glyph-name="section" horiz-adv-x="451" d="M117 -6T81 16T27 68T10 121Q10 145 28 163T68 182Q85 182 94 173T106 148Q109 119 131 102T189 84Q230 84 259 105T289 157Q289 173 270 186T210 214Q146 236 115 264T83 335Q83 360 92 384T118
427Q110 446 110 467Q110 517 139 552T215 606T318 624Q386 624 422 599T458 529Q458 490 442 463T396 435Q375 435 365 444T354 467Q354 473 358 486T363 507Q363 520 348 527T301 535Q263 535 234 523T205 485Q205 471 216 461T244 445T274 434Q324 417 350 405T394
370T411 313Q411 287 403 261T378 214Q383 199 383 178Q383 127 352 85T272 19T170 -6Q117 -6 81 16ZM321 273T324 284T328 303Q328 319 311 331T262 355Q230 367 182 381Q166 368 166 347Q166 326 182 316T216 302T238 295Q244 293 271 285T315 266Q321 273 324
284Z" />
<glyph unicode="&#xa8;" glyph-name="dieresis" horiz-adv-x="307" d="M110 571T96 584T81 618Q81 648 107 672T166 697Q188 697 203 683T218 648Q218 618 192 595T134 571Q110 571 96 584ZM284 571T270 584T256 618Q256 648 281 672T340 697Q362 697 377 683T392
648Q392 618 366 595T307 571Q284 571 270 584Z" />
<glyph unicode="&#xa9;" glyph-name="copyright" horiz-adv-x="597" d="M223 171T174 198T98 275T71 384Q71 466 118 542T241 665T399 712Q461 712 510 684T586 607T613 497Q613 415 566 340T443 218T284 171Q223 171 174 198ZM361 241T417 276T507 367T542 483Q542
552 498 597T384 642Q322 642 266 607T176 514T142 398Q142 353 162 318T218 262T299 241Q361 241 417 276ZM267 311T237 340T207 413Q207 456 230 494T293 554T378 577Q410 577 438 561T467 521Q467 500 453 488T416 475Q406 475 398 480T388 488Q375 497 361
497Q332 497 314 478T295 433Q295 416 305 405T335 393Q358 393 383 413Q402 430 420 430Q436 430 446 422T456 399Q456 387 450 376T429 351Q387 311 313 311Q267 311 237 340Z" />
<glyph unicode="&#xaa;" glyph-name="ordfeminine" horiz-adv-x="330" d="M252 311T241 321T232 342L234 354Q217 335 200 325T157 315Q117 315 91 346T65 425Q65 477 93 530T169 618T266 652Q298 652 329 640T374 615L320 356Q316 338 300 325T266 311Q252 311
241 321ZM200 402T216 408T242 423L273 558Q265 564 251 564Q227 564 206 545T172 498T159 445Q159 427 166 415T189 402Q200 402 216 408Z" />
<glyph unicode="&#xab;" glyph-name="guillemotleft" horiz-adv-x="554" d="M180 69T170 81L47 214Q38 224 38 240Q38 254 45 267T63 287L254 426Q272 440 290 440Q307 440 318 429T329 401Q329 374 304 355L149 243L239 146Q251 134 251 120Q251 99 236 84T199
69Q180 69 170 81ZM412 69T402 81L279 214Q270 224 270 240Q270 254 277 267T295 287L486 426Q504 440 522 440Q539 440 550 429T561 401Q561 374 536 355L381 243L471 146Q483 134 483 120Q483 99 468 84T431 69Q412 69 402 81Z" />
<glyph unicode="&#xac;" glyph-name="logicalnot" horiz-adv-x="464" d="M326 108T316 122T309 153L330 247H77Q61 247 51 257T40 283Q40 304 58 321T97 338H395Q413 338 423 327T433 302Q433 295 432 292L401 153Q397 134 381 121T346 108Q326 108 316 122Z" />
<glyph unicode="&#xad;" glyph-name="uni00AD" horiz-adv-x="409" d="M67 203T56 214T45 241Q45 262 63 279T103 297H328Q345 297 355 286T366 259Q366 238 348 221T308 203H83Q67 203 56 214Z" />
<glyph unicode="&#xae;" glyph-name="registered" horiz-adv-x="610" d="M229 177T180 204T104 281T77 390Q77 472 124 548T247 671T405 718Q467 718 516 690T592 613T619 503Q619 420 572 345T448 223T290 177Q229 177 180 204ZM367 247T423 282T513 373T548
489Q548 558 504 603T390 648Q328 648 272 613T182 520T148 404Q148 359 168 324T224 268T305 247Q367 247 423 282ZM229 330T219 342T208 369Q208 373 210 381L271 541Q278 560 286 568T313 578T372 581Q427 581 456 563T485 512Q485 452 404 421L418 409Q433
396 433 381Q433 360 415 345T378 329Q363 329 355 336L300 381L296 368Q292 352 278 341T244 330Q229 330 219 342ZM362 457T386 468T410 495Q410 520 363 520Q351 520 345 519L321 457Q362 457 386 468Z" />
<glyph unicode="&#xaf;" glyph-name="overscore" horiz-adv-x="280" d="M99 575T89 584T79 610Q79 634 97 650T135 667H325Q342 667 351 657T361 631Q361 608 344 592T305 575H115Q99 575 89 584Z" />
<glyph unicode="&#xb0;" glyph-name="degree" horiz-adv-x="288" d="M135 422T105 452T74 528Q74 569 97 606T159 666T239 689Q286 689 316 659T346 584Q346 543 323 506T261 445T182 422Q135 422 105 452ZM224 509T241 526T258 565Q258 580 247 590T220 601Q199
601 181 584T162 547Q162 531 173 520T201 509Q224 509 241 526Z" />
<glyph unicode="&#xb1;" glyph-name="plusminus" horiz-adv-x="430" d="M169 124T159 138T152 170L168 245H91Q75 245 65 255T54 281Q54 304 73 321T111 339H188L202 405Q205 423 221 437T258 451Q277 451 287 436T295 405L281 339H358Q373 339 384 328T396 300Q396
281 377 263T338 245H261L245 170Q241 152 224 138T189 124Q169 124 159 138ZM37 -1T27 8T16 35Q16 58 34 75T73 93H290Q306 93 316 82T327 56Q327 34 310 17T270 -1H53Q37 -1 27 8Z" />
<glyph unicode="&#xb2;" glyph-name="uni00B2" horiz-adv-x="368" d="M113 500T144 541T254 623Q289 642 302 653T316 681Q316 690 308 696T286 703Q261 703 232 679Q218 666 210 662T188 657Q171 657 162 665T153 687Q153 712 179 737Q197 754 232 772T304 790Q348
790 377 766T407 701Q407 649 376 616T296 557Q261 538 239 521T206 485H324Q337 485 348 475T359 449Q359 429 341 413T305 396H92L101 440Q113 500 144 541Z" />
<glyph unicode="&#xb3;" glyph-name="uni00B3" horiz-adv-x="330" d="M161 394T136 406T97 438T82 475Q82 497 97 513T134 530Q159 530 169 505Q173 494 184 488T210 481Q231 481 246 495T262 530Q262 557 215 561Q182 564 182 591Q182 615 195 629T233 645Q257
647 273 658T289 685Q289 705 257 705Q232 705 214 693Q198 682 179 682Q166 682 157 690T147 714Q147 735 167 753T217 782T275 793Q318 793 348 771T379 709Q379 680 363 651T322 607Q336 599 344 583T353 547Q353 507 330 472T270 416T192 394Q161 394 136 406Z"
/>
<glyph unicode="&#xb4;" glyph-name="acute" horiz-adv-x="206" d="M92 528T81 539T70 567Q70 578 74 586T89 605L209 724Q219 734 232 740T258 746Q277 746 289 733T302 701Q302 675 277 654L146 543Q130 528 109 528Q92 528 81 539Z" />
<glyph unicode="&#xb5;" glyph-name="uni00B5" horiz-adv-x="520" d="M472 494T484 484T493 458L406 42Q402 23 384 9T347 -6Q329 -6 317 4T304 30Q304 38 308 54Q283 25 248 9T176 -8Q157 -8 138 0T106 24Q104 -36 104 -115Q104 -136 89 -153T47 -170Q30 -170
19 -159T8 -126Q8 -107 19 -32Q30 46 32 65Q46 186 57 246Q75 350 110 443Q120 473 134 483T169 494Q188 494 198 485T208 461Q208 450 199 419T188 381Q166 309 157 273Q149 237 143 199T136 136Q136 106 149 94T195 81Q223 81 263 100T318 134Q329 147 333 163L399
448Q403 468 420 481T455 494Q472 494 484 484Z" />
<glyph unicode="&#xb6;" glyph-name="paragraph" horiz-adv-x="551" d="M159 -79T151 -72T142 -52Q142 -38 155 -8Q171 30 210 140T268 311L253 312Q181 316 137 351T93 451Q93 545 159 611T313 712Q370 735 402 744T456 754Q471 754 480 746T489 723Q489 704
482 690T462 669L441 659L425 583Q391 425 340 265T229 -41Q221 -58 207 -68T175 -79Q159 -79 151 -72ZM311 -78T303 -72T294 -55Q294 -41 312 2Q364 125 411 275T494 593L508 663Q512 683 526 698T560 713Q577 713 586 703T595 675Q595 661 580 593Q508 255 381
-41Q374 -58 360 -68T326 -78Q311 -78 303 -72Z" />
<glyph unicode="&#xb7;" glyph-name="middot" horiz-adv-x="198" d="M56 185T45 197T34 228Q34 233 36 243Q41 267 63 286T109 306Q127 306 138 294T149 264Q149 255 147 247Q142 223 120 204T75 185Q56 185 45 197Z" />
<glyph unicode="&#xb8;" glyph-name="cedilla" horiz-adv-x="186" d="M112 -51T112 -93Q112 -138 78 -167T-3 -196Q-39 -196 -60 -184T-82 -148Q-82 -132 -71 -121T-44 -109Q-32 -109 -25 -112T-12 -123Q-4 -134 11 -134Q23 -134 31 -125T40 -103Q40 -82 15 -77Q-3
-74 -9 -74H-17Q-40 -74 -40 -55Q-40 -50 -32 -31T-10 11Q0 29 7 35T24 41Q34 41 38 36T43 19Q43 9 37 -27Q51 -29 67 -34Q112 -51 112 -93Z" />
<glyph unicode="&#xb9;" glyph-name="uni00B9" horiz-adv-x="287" d="M108 396T99 405T90 428Q90 452 107 468T144 484H158L194 638L189 637Q183 635 173 635Q160 635 150 645T139 670Q139 680 143 691T156 708L235 777Q252 792 275 792Q289 792 298 783T307 758Q307
755 305 743L244 484H256Q270 484 278 474T286 449Q286 427 269 412T232 396H125Q108 396 99 405Z" />
<glyph unicode="&#xba;" glyph-name="ordmasculine" horiz-adv-x="387" d="M151 315T120 348T89 434Q89 484 117 534T192 616T288 648Q336 648 367 616T399 530Q399 480 371 430T296 347T200 315Q151 315 120 348ZM240 402T259 418T291 460T304 509Q304 530 294
545T267 561Q246 561 226 543T194 499T182 450Q182 429 192 416T219 402Q240 402 259 418Z" />
<glyph unicode="&#xbb;" glyph-name="guillemotright" horiz-adv-x="529" d="M28 70T17 81T5 109Q5 123 12 135T30 154L168 257L69 362Q57 374 57 388Q57 410 72 425T109 440Q118 440 124 438T137 428L267 290Q282 275 282 258Q282 247 275 235T256 214L84 85Q73
77 65 74T44 70Q28 70 17 81ZM239 70T228 81T216 109Q216 123 223 135T241 154L379 257L280 362Q268 374 268 388Q268 410 283 425T320 440Q329 440 335 438T348 428L478 290Q493 275 493 258Q493 247 486 235T467 214L295 85Q284 77 276 74T255 70Q239 70 228
81Z" />
<glyph unicode="&#xbc;" glyph-name="onequarter" horiz-adv-x="678" d="M115 396T106 405T97 428Q97 452 114 468T151 484H165L201 638L196 637Q190 635 180 635Q167 635 157 645T146 670Q146 680 150 691T163 708L242 777Q259 792 282 792Q296 792 305 783T314
758Q314 755 312 743L251 484H263Q277 484 285 474T293 449Q293 427 276 412T239 396H132Q115 396 106 405ZM104 -7T95 2T85 25Q85 31 86 34Q87 42 95 54L565 669Q580 689 605 689Q620 689 629 680T639 657Q639 642 624 621L158 14Q151 4 141 -1T119 -7Q104 -7
95 2ZM494 -3T484 11T477 37L489 83H380Q364 83 355 91T346 115Q346 132 360 148L558 377Q566 387 574 391T596 396Q613 396 622 384T628 356L586 160Q597 157 599 155Q612 149 612 132Q612 118 604 105T585 86Q575 81 569 81L559 37Q555 21 540 9T510 -3Q494 -3
484 11ZM519 213L466 163L505 162L519 213Z" />
<glyph unicode="&#xbd;" glyph-name="onehalf" horiz-adv-x="712" d="M115 396T106 405T97 428Q97 452 114 468T151 484H165L201 638L196 637Q190 635 180 635Q167 635 157 645T146 670Q146 680 150 691T163 708L242 777Q259 792 282 792Q296 792 305 783T314
758Q314 755 312 743L251 484H263Q277 484 285 474T293 449Q293 427 276 412T239 396H132Q115 396 106 405ZM86 -7T77 2T67 25Q67 31 68 34Q69 42 77 54L547 669Q562 689 587 689Q602 689 611 680T621 657Q621 642 606 621L140 14Q133 4 123 -1T101 -7Q86 -7 77
2ZM384 105T415 146T525 228Q560 247 573 258T587 286Q587 295 579 301T557 308Q532 308 503 284Q489 271 481 267T459 262Q442 262 433 270T424 292Q424 317 450 342Q468 359 503 377T575 395Q619 395 648 371T678 306Q678 254 647 221T567 162Q532 143 510 126T477
90H595Q608 90 619 80T630 54Q630 34 612 18T576 1H363L372 45Q384 105 415 146Z" />
<glyph unicode="&#xbe;" glyph-name="threequarters" horiz-adv-x="630" d="M111 396T102 405T93 428Q93 452 110 468T147 484H161L197 638L192 637Q186 635 176 635Q163 635 153 645T142 670Q142 680 146 691T159 708L238 777Q255 792 278 792Q292 792 301 783T310
758Q310 755 308 743L247 484H259Q273 484 281 474T289 449Q289 427 272 412T235 396H128Q111 396 102 405ZM82 -7T73 2T63 25Q63 31 64 34Q65 42 73 54L543 669Q558 689 583 689Q598 689 607 680T617 657Q617 642 602 621L136 14Q129 4 119 -1T97 -7Q82 -7 73
2ZM448 -63T438 -49T431 -23L443 23H334Q318 23 309 31T300 55Q300 72 314 88L512 317Q520 327 528 331T550 336Q567 336 576 324T582 296L540 100Q551 97 553 95Q566 89 566 72Q566 58 558 45T539 26Q529 21 523 21L513 -23Q509 -39 494 -51T464 -63Q448 -63 438
-49ZM473 153L420 103L459 102L473 153Z" />
<glyph unicode="&#xbf;" glyph-name="questiondown" horiz-adv-x="474" d="M347 380T336 392T325 423Q325 454 348 477T399 501Q418 501 429 489T440 458Q440 438 429 420T400 391T366 380Q347 380 336 392ZM96 -170T48 -131T0 -17Q0 39 22 83T79 160T170 236L298
329Q312 337 319 339T334 342Q350 342 361 332T372 305Q372 277 349 262L232 181Q167 134 131 94T95 9Q95 -30 124 -53T205 -76Q239 -76 270 -60T321 -23Q334 -10 343 -6T364 -1Q381 -1 392 -11T403 -39Q403 -54 394 -67T367 -95Q333 -125 283 -147T180 -170Q96
-170 48 -131Z" />
<glyph unicode="&#xc0;" glyph-name="Agrave" horiz-adv-x="552" d="M425 -7T414 3T401 33L373 235L159 190L59 26Q39 -6 7 -6Q-11 -6 -22 5T-34 34Q-34 47 -26 61L41 171L37 173Q15 183 15 208Q15 229 29 245T65 267L103 275L331 651Q340 665 355 673T385 682Q401
682 411 674T424 649L501 70Q502 65 502 57Q502 28 486 11T445 -7Q425 -7 414 3ZM359 328L340 489L225 300L359 328ZM423 703T402 716L272 798Q253 810 244 820T234 847Q234 867 249 881T284 895Q293 895 299 892T313 884T323 877L463 776Q479 764 479 745Q479
730 466 717T438 703Q423 703 402 716Z" />
<glyph unicode="&#xc1;" glyph-name="Aacute" horiz-adv-x="552" d="M425 -7T414 3T401 33L373 235L159 190L59 26Q39 -6 7 -6Q-11 -6 -22 5T-34 34Q-34 47 -26 61L41 171L37 173Q15 183 15 208Q15 229 29 245T65 267L103 275L331 651Q340 665 355 673T385 682Q401
682 411 674T424 649L501 70Q502 65 502 57Q502 28 486 11T445 -7Q425 -7 414 3ZM359 328L340 489L225 300L359 328ZM341 703T331 713T320 741Q320 768 349 788L475 876Q505 896 523 896Q544 896 555 884T567 851Q567 838 558 824T536 801L398 718Q373 703 358
703Q341 703 331 713Z" />
<glyph unicode="&#xc2;" glyph-name="Acircumflex" horiz-adv-x="552" d="M425 -7T414 3T401 33L373 235L159 190L59 26Q39 -6 7 -6Q-11 -6 -22 5T-34 34Q-34 47 -26 61L41 171L37 173Q15 183 15 208Q15 229 29 245T65 267L103 275L331 651Q340 665 355 673T385
682Q401 682 411 674T424 649L501 70Q502 65 502 57Q502 28 486 11T445 -7Q425 -7 414 3ZM359 328L340 489L225 300L359 328ZM247 708T238 718T229 745Q229 772 255 791L397 891Q413 903 430 903Q438 903 447 898T463 885L531 789Q539 777 539 762Q539 742 522
725T486 708Q467 708 457 720L402 786L293 717Q292 716 285 712T263 708Q247 708 238 718Z" />
<glyph unicode="&#xc3;" glyph-name="Atilde" horiz-adv-x="552" d="M425 -7T414 3T401 33L373 235L159 190L59 26Q39 -6 7 -6Q-11 -6 -22 5T-34 34Q-34 47 -26 61L41 171L37 173Q15 183 15 208Q15 229 29 245T65 267L103 275L331 651Q340 665 355 673T385 682Q401
682 411 674T424 649L501 70Q502 65 502 57Q502 28 486 11T445 -7Q425 -7 414 3ZM359 328L340 489L225 300L359 328ZM225 716T218 723T210 741Q210 763 235 798Q264 838 297 857T362 876Q388 876 403 866T435 832Q452 807 460 799T480 790Q492 790 507 807T536
856Q548 884 577 884Q588 884 595 877T603 858Q603 833 569 788Q509 710 450 710Q410 710 376 756Q372 762 363 774T347 791T331 796Q301 796 271 739Q259 716 235 716Q225 716 218 723Z" />
<glyph unicode="&#xc4;" glyph-name="Adieresis" horiz-adv-x="552" d="M425 -7T414 3T401 33L373 235L159 190L59 26Q39 -6 7 -6Q-11 -6 -22 5T-34 34Q-34 47 -26 61L41 171L37 173Q15 183 15 208Q15 229 29 245T65 267L103 275L331 651Q340 665 355 673T385
682Q401 682 411 674T424 649L501 70Q502 65 502 57Q502 28 486 11T445 -7Q425 -7 414 3ZM359 328L340 489L225 300L359 328ZM277 726T263 739T248 773Q248 803 274 827T333 852Q355 852 370 838T385 803Q385 773 359 750T301 726Q277 726 263 739ZM451 726T437
739T423 773Q423 803 448 827T507 852Q529 852 544 838T559 803Q559 773 533 750T474 726Q451 726 437 739Z" />
<glyph unicode="&#xc5;" glyph-name="Aring" horiz-adv-x="552" d="M425 -7T414 3T401 33L373 235L159 190L59 26Q39 -6 7 -6Q-11 -6 -22 5T-34 34Q-34 47 -26 61L41 171L37 173Q15 183 15 208Q15 229 29 245T65 267L103 275L331 651Q340 665 355 673T385 682Q401
682 411 674T424 649L501 70Q502 65 502 57Q502 28 486 11T445 -7Q425 -7 414 3ZM359 328L340 489L225 300L359 328ZM331 706T305 730T278 793Q278 830 303 863T367 918T446 939Q486 939 513 914T540 852Q540 815 515 781T451 727T372 706Q331 706 305 730ZM423
790T441 803T460 832Q460 843 450 849T420 855Q395 855 377 842T358 813Q358 802 368 796T398 790Q423 790 441 803Z" />
<glyph unicode="&#xc6;" glyph-name="AE" horiz-adv-x="927" d="M-30 -9T-40 2T-51 30Q-51 51 -36 67L107 223L102 227Q91 238 91 256Q91 276 106 292T142 313L202 325L506 654Q524 675 546 675H948Q967 675 977 665T988 638Q988 614 970 596T928 578H577L535
380H840Q857 380 867 369T878 341Q878 318 860 300T819 282L514 283L473 91H824Q843 91 853 81T864 54Q864 30 846 12T804 -6H405Q385 -6 374 7T366 40L415 273L238 237L30 11Q11 -9 -13 -9Q-30 -9 -40 2ZM435 370L458 475L346 353L435 370Z" />
<glyph unicode="&#xc7;" glyph-name="Ccedilla" horiz-adv-x="583" d="M605 653T616 642T627 614Q627 607 626 603L610 543Q604 522 588 508T548 493Q531 493 520 505T512 534L513 539Q482 579 420 579Q358 579 294 524T188 389T146 245Q146 172 189 131T299 89Q397
89 476 171Q496 191 519 191Q536 191 548 180T560 151Q560 130 543 111Q490 56 425 26T290 -8Q288 -24 286 -31Q299 -33 316 -38Q361 -54 361 -97Q361 -142 327 -171T246 -200Q210 -200 189 -188T167 -152Q167 -136 178 -125T205 -113Q217 -113 224 -116T237 -127Q245
-138 260 -138Q272 -138 280 -129T289 -107Q289 -86 264 -81Q246 -78 240 -78H232Q209 -78 209 -59Q209 -56 216 -40T233 -4Q147 10 95 73T43 227Q43 321 103 427T257 604T440 676Q475 676 505 667T557 642Q573 653 588 653Q605 653 616 642Z" />
<glyph unicode="&#xc8;" glyph-name="Egrave" horiz-adv-x="596" d="M52 0T41 13T33 46L155 620Q160 641 177 655T215 670H614Q632 670 643 659T654 631Q654 608 635 589T593 570H243L205 392H509Q527 392 537 382T548 354Q548 330 530 312T488 293H184L143 100H491Q509
100 519 89T530 61Q530 37 512 19T470 0H73Q52 0 41 13ZM467 703T446 716L316 798Q297 810 288 820T278 847Q278 867 293 881T328 895Q337 895 343 892T357 884T367 877L507 776Q523 764 523 745Q523 730 510 717T482 703Q467 703 446 716Z" />
<glyph unicode="&#xc9;" glyph-name="Eacute" horiz-adv-x="596" d="M52 0T41 13T33 46L155 620Q160 641 177 655T215 670H614Q632 670 643 659T654 631Q654 608 635 589T593 570H243L205 392H509Q527 392 537 382T548 354Q548 330 530 312T488 293H184L143 100H491Q509
100 519 89T530 61Q530 37 512 19T470 0H73Q52 0 41 13ZM385 703T375 713T364 741Q364 768 393 788L519 876Q549 896 567 896Q588 896 599 884T611 851Q611 838 602 824T580 801L442 718Q417 703 402 703Q385 703 375 713Z" />
<glyph unicode="&#xca;" glyph-name="Ecircumflex" horiz-adv-x="596" d="M52 0T41 13T33 46L155 620Q160 641 177 655T215 670H614Q632 670 643 659T654 631Q654 608 635 589T593 570H243L205 392H509Q527 392 537 382T548 354Q548 330 530 312T488 293H184L143
100H491Q509 100 519 89T530 61Q530 37 512 19T470 0H73Q52 0 41 13ZM291 708T282 718T273 745Q273 772 299 791L441 891Q457 903 474 903Q482 903 491 898T507 885L575 789Q583 777 583 762Q583 742 566 725T530 708Q511 708 501 720L446 786L337 717Q336 716
329 712T307 708Q291 708 282 718Z" />
<glyph unicode="&#xcb;" glyph-name="Edieresis" horiz-adv-x="596" d="M52 0T41 13T33 46L155 620Q160 641 177 655T215 670H614Q632 670 643 659T654 631Q654 608 635 589T593 570H243L205 392H509Q527 392 537 382T548 354Q548 330 530 312T488 293H184L143
100H491Q509 100 519 89T530 61Q530 37 512 19T470 0H73Q52 0 41 13ZM321 726T307 739T292 773Q292 803 318 827T377 852Q399 852 414 838T429 803Q429 773 403 750T345 726Q321 726 307 739ZM495 726T481 739T467 773Q467 803 492 827T551 852Q573 852 588 838T603
803Q603 773 577 750T518 726Q495 726 481 739Z" />
<glyph unicode="&#xcc;" glyph-name="Igrave" horiz-adv-x="405" d="M12 0T1 11T-10 39Q-10 63 9 81T52 100H122L221 570H151Q133 570 122 581T111 610Q111 634 129 652T172 670H411Q429 670 440 660T451 632Q451 608 433 589T390 570H321L222 100H289Q308 100
319 90T330 62Q330 38 312 19T269 0H30Q12 0 1 11ZM340 703T319 716L189 798Q170 810 161 820T151 847Q151 867 166 881T201 895Q210 895 216 892T230 884T240 877L380 776Q396 764 396 745Q396 730 383 717T355 703Q340 703 319 716Z" />
<glyph unicode="&#xcd;" glyph-name="Iacute" horiz-adv-x="405" d="M12 0T1 11T-10 39Q-10 63 9 81T52 100H122L221 570H151Q133 570 122 581T111 610Q111 634 129 652T172 670H411Q429 670 440 660T451 632Q451 608 433 589T390 570H321L222 100H289Q308 100
319 90T330 62Q330 38 312 19T269 0H30Q12 0 1 11ZM258 703T248 713T237 741Q237 768 266 788L392 876Q422 896 440 896Q461 896 472 884T484 851Q484 838 475 824T453 801L315 718Q290 703 275 703Q258 703 248 713Z" />
<glyph unicode="&#xce;" glyph-name="Icircumflex" horiz-adv-x="405" d="M12 0T1 11T-10 39Q-10 63 9 81T52 100H122L221 570H151Q133 570 122 581T111 610Q111 634 129 652T172 670H411Q429 670 440 660T451 632Q451 608 433 589T390 570H321L222 100H289Q308
100 319 90T330 62Q330 38 312 19T269 0H30Q12 0 1 11ZM164 708T155 718T146 745Q146 772 172 791L314 891Q330 903 347 903Q355 903 364 898T380 885L448 789Q456 777 456 762Q456 742 439 725T403 708Q384 708 374 720L319 786L210 717Q209 716 202 712T180 708Q164
708 155 718Z" />
<glyph unicode="&#xcf;" glyph-name="Idieresis" horiz-adv-x="405" d="M12 0T1 11T-10 39Q-10 63 9 81T52 100H122L221 570H151Q133 570 122 581T111 610Q111 634 129 652T172 670H411Q429 670 440 660T451 632Q451 608 433 589T390 570H321L222 100H289Q308
100 319 90T330 62Q330 38 312 19T269 0H30Q12 0 1 11ZM194 726T180 739T165 773Q165 803 191 827T250 852Q272 852 287 838T302 803Q302 773 276 750T218 726Q194 726 180 739ZM368 726T354 739T340 773Q340 803 365 827T424 852Q446 852 461 838T476 803Q476
773 450 750T391 726Q368 726 354 739Z" />
<glyph unicode="&#xd0;" glyph-name="Eth" horiz-adv-x="626" d="M331 679T418 647T555 550T604 394Q604 273 549 179T396 32T174 -21Q126 -21 58 -4Q46 -1 38 10T29 36Q29 42 30 45L77 266H42Q25 266 14 277T2 306Q2 328 21 346T63 365H98L155 630Q159 651 176
665T215 679Q331 679 418 647ZM288 77T357 113T463 215T501 369Q501 469 431 519T244 579L199 365H268Q286 365 297 354T309 325Q309 303 290 285T247 266H178L139 83Q171 77 196 77Q288 77 357 113Z" />
<glyph unicode="&#xd1;" glyph-name="Ntilde" horiz-adv-x="652" d="M54 -6T42 6T30 34Q30 40 31 43L156 626Q161 647 177 661T214 675Q240 675 253 649L467 201L558 626Q563 647 580 661T618 676Q639 676 650 660T657 626L533 43Q529 23 514 9T477 -6Q447 -6
431 27L221 467L130 43Q126 22 109 8T70 -6Q54 -6 42 6ZM264 716T257 723T249 741Q249 763 274 798Q303 838 336 857T401 876Q427 876 442 866T474 832Q491 807 499 799T519 790Q531 790 546 807T575 856Q587 884 616 884Q627 884 634 877T642 858Q642 833 608
788Q548 710 489 710Q449 710 415 756Q411 762 402 774T386 791T370 796Q340 796 310 739Q298 716 274 716Q264 716 257 723Z" />
<glyph unicode="&#xd2;" glyph-name="Ograve" horiz-adv-x="634" d="M184 -8T139 22T70 105T46 226Q46 333 99 437T240 609T428 676Q489 676 534 646T603 563T627 442Q627 335 574 231T433 59T245 -8Q184 -8 139 22ZM327 87T387 135T487 262T527 423Q527 493 494
537T403 581Q346 581 286 533T186 406T146 245Q146 175 179 131T270 87Q327 87 387 135ZM491 703T470 716L340 798Q321 810 312 820T302 847Q302 867 317 881T352 895Q361 895 367 892T381 884T391 877L531 776Q547 764 547 745Q547 730 534 717T506 703Q491 703
470 716Z" />
<glyph unicode="&#xd3;" glyph-name="Oacute" horiz-adv-x="634" d="M184 -8T139 22T70 105T46 226Q46 333 99 437T240 609T428 676Q489 676 534 646T603 563T627 442Q627 335 574 231T433 59T245 -8Q184 -8 139 22ZM327 87T387 135T487 262T527 423Q527 493 494
537T403 581Q346 581 286 533T186 406T146 245Q146 175 179 131T270 87Q327 87 387 135ZM409 703T399 713T388 741Q388 768 417 788L543 876Q573 896 591 896Q612 896 623 884T635 851Q635 838 626 824T604 801L466 718Q441 703 426 703Q409 703 399 713Z" />
<glyph unicode="&#xd4;" glyph-name="Ocircumflex" horiz-adv-x="634" d="M184 -8T139 22T70 105T46 226Q46 333 99 437T240 609T428 676Q489 676 534 646T603 563T627 442Q627 335 574 231T433 59T245 -8Q184 -8 139 22ZM327 87T387 135T487 262T527 423Q527
493 494 537T403 581Q346 581 286 533T186 406T146 245Q146 175 179 131T270 87Q327 87 387 135ZM315 708T306 718T297 745Q297 772 323 791L465 891Q481 903 498 903Q506 903 515 898T531 885L599 789Q607 777 607 762Q607 742 590 725T554 708Q535 708 525 720L470
786L361 717Q360 716 353 712T331 708Q315 708 306 718Z" />
<glyph unicode="&#xd5;" glyph-name="Otilde" horiz-adv-x="634" d="M184 -8T139 22T70 105T46 226Q46 333 99 437T240 609T428 676Q489 676 534 646T603 563T627 442Q627 335 574 231T433 59T245 -8Q184 -8 139 22ZM327 87T387 135T487 262T527 423Q527 493 494
537T403 581Q346 581 286 533T186 406T146 245Q146 175 179 131T270 87Q327 87 387 135ZM293 716T286 723T278 741Q278 763 303 798Q332 838 365 857T430 876Q456 876 471 866T503 832Q520 807 528 799T548 790Q560 790 575 807T604 856Q616 884 645 884Q656 884
663 877T671 858Q671 833 637 788Q577 710 518 710Q478 710 444 756Q440 762 431 774T415 791T399 796Q369 796 339 739Q327 716 303 716Q293 716 286 723Z" />
<glyph unicode="&#xd6;" glyph-name="Odieresis" horiz-adv-x="634" d="M184 -8T139 22T70 105T46 226Q46 333 99 437T240 609T428 676Q489 676 534 646T603 563T627 442Q627 335 574 231T433 59T245 -8Q184 -8 139 22ZM327 87T387 135T487 262T527 423Q527 493
494 537T403 581Q346 581 286 533T186 406T146 245Q146 175 179 131T270 87Q327 87 387 135ZM345 726T331 739T316 773Q316 803 342 827T401 852Q423 852 438 838T453 803Q453 773 427 750T369 726Q345 726 331 739ZM519 726T505 739T491 773Q491 803 516 827T575
852Q597 852 612 838T627 803Q627 773 601 750T542 726Q519 726 505 739Z" />
<glyph unicode="&#xd7;" glyph-name="multiply" horiz-adv-x="387" d="M62 109T52 121T41 148Q41 160 46 169T64 189L130 243L92 290Q84 300 84 312Q84 331 102 350T142 370Q153 370 159 367T172 356L210 310L275 363Q291 376 308 376Q327 376 337 366T348 341Q348
315 328 297L262 243L304 190Q311 181 311 168Q311 146 294 128T254 110Q236 110 224 124L181 177L115 123Q98 109 80 109Q62 109 52 121Z" />
<glyph unicode="&#xd8;" glyph-name="Oslash" horiz-adv-x="629" d="M572 604Q598 573 611 530T625 436Q625 329 572 225T431 53T243 -14Q175 -14 127 23L101 -12Q83 -36 56 -36Q37 -36 28 -27T19 0Q19 18 31 34L73 89Q44 145 44 220Q44 327 97 431T238 603T426
670Q470 670 504 655L545 708Q564 733 592 733Q606 733 617 723T628 696Q628 689 625 679T616 662L572 604ZM144 214T149 189L439 569Q422 575 401 575Q344 575 284 527T184 400T144 239Q144 214 149 189ZM525 473T503 514L193 108Q223 81 268 81Q325 81 385 129T485
256T525 417Q525 473 503 514Z" />
<glyph unicode="&#xd9;" glyph-name="Ugrave" horiz-adv-x="669" d="M171 -6T119 61T67 245Q67 301 80 371T122 576Q131 611 133 623Q138 643 153 659T196 675Q215 675 225 663T236 636Q236 630 235 627Q203 500 186 408T168 256Q168 86 292 86Q361 86 419 130T510
271Q530 333 544 391T574 530L594 625Q604 675 654 675Q677 675 686 662T693 628Q673 510 656 431T608 264Q564 137 481 66T271 -6Q171 -6 119 61ZM471 703T450 716L320 798Q301 810 292 820T282 847Q282 867 297 881T332 895Q341 895 347 892T361 884T371 877L511
776Q527 764 527 745Q527 730 514 717T486 703Q471 703 450 716Z" />
<glyph unicode="&#xda;" glyph-name="Uacute" horiz-adv-x="669" d="M171 -6T119 61T67 245Q67 301 80 371T122 576Q131 611 133 623Q138 643 153 659T196 675Q215 675 225 663T236 636Q236 630 235 627Q203 500 186 408T168 256Q168 86 292 86Q361 86 419 130T510
271Q530 333 544 391T574 530L594 625Q604 675 654 675Q677 675 686 662T693 628Q673 510 656 431T608 264Q564 137 481 66T271 -6Q171 -6 119 61ZM389 703T379 713T368 741Q368 768 397 788L523 876Q553 896 571 896Q592 896 603 884T615 851Q615 838 606 824T584
801L446 718Q421 703 406 703Q389 703 379 713Z" />
<glyph unicode="&#xdb;" glyph-name="Ucircumflex" horiz-adv-x="669" d="M171 -6T119 61T67 245Q67 301 80 371T122 576Q131 611 133 623Q138 643 153 659T196 675Q215 675 225 663T236 636Q236 630 235 627Q203 500 186 408T168 256Q168 86 292 86Q361 86 419
130T510 271Q530 333 544 391T574 530L594 625Q604 675 654 675Q677 675 686 662T693 628Q673 510 656 431T608 264Q564 137 481 66T271 -6Q171 -6 119 61ZM295 708T286 718T277 745Q277 772 303 791L445 891Q461 903 478 903Q486 903 495 898T511 885L579 789Q587
777 587 762Q587 742 570 725T534 708Q515 708 505 720L450 786L341 717Q340 716 333 712T311 708Q295 708 286 718Z" />
<glyph unicode="&#xdc;" glyph-name="Udieresis" horiz-adv-x="669" d="M171 -6T119 61T67 245Q67 301 80 371T122 576Q131 611 133 623Q138 643 153 659T196 675Q215 675 225 663T236 636Q236 630 235 627Q203 500 186 408T168 256Q168 86 292 86Q361 86 419
130T510 271Q530 333 544 391T574 530L594 625Q604 675 654 675Q677 675 686 662T693 628Q673 510 656 431T608 264Q564 137 481 66T271 -6Q171 -6 119 61ZM325 726T311 739T296 773Q296 803 322 827T381 852Q403 852 418 838T433 803Q433 773 407 750T349 726Q325
726 311 739ZM499 726T485 739T471 773Q471 803 496 827T555 852Q577 852 592 838T607 803Q607 773 581 750T522 726Q499 726 485 739Z" />
<glyph unicode="&#xdd;" glyph-name="Yacute" horiz-adv-x="582" d="M116 -6T105 5T94 34Q94 52 109 71L236 225L96 602Q92 611 92 620Q92 644 108 659T144 675Q157 675 167 669T181 650L306 315L576 651Q596 675 624 675Q640 675 652 664T664 636Q664 616 646
594L182 19Q162 -6 134 -6Q116 -6 105 5ZM346 703T336 713T325 741Q325 768 354 788L480 876Q510 896 528 896Q549 896 560 884T572 851Q572 838 563 824T541 801L403 718Q378 703 363 703Q346 703 336 713Z" />
<glyph unicode="&#xde;" glyph-name="Thorn" horiz-adv-x="573" d="M32 -6T22 5T12 32Q12 39 13 42L139 627Q143 647 159 660T196 674Q213 674 223 663T234 636Q234 629 233 626L222 573Q348 571 431 537T515 411Q515 323 459 261T315 167T126 128L107 41Q103
21 87 8T50 -6Q32 -6 22 5ZM209 230T271 247T375 299T418 383Q418 427 365 452T218 477H201L147 226Q209 230 271 247Z" />
<glyph unicode="&#xdf;" glyph-name="germandbls" horiz-adv-x="551" d="M201 -28T188 -18T174 10Q174 33 192 49T236 65Q263 65 299 83Q328 97 350 130T372 202Q372 237 352 260T295 284Q286 284 268 282Q252 280 246 280Q230 280 220 289T209 316Q209 337 224
352T259 372L280 376Q318 384 335 410T352 466Q352 493 335 510T289 528Q258 528 230 505T194 450L107 40Q103 22 86 8T51 -6Q34 -6 24 4T14 31Q14 37 15 40L102 450Q112 497 143 536T219 598T309 621Q369 621 407 583T446 486Q446 452 431 415T392 355Q426 341
446 307T467 224Q467 158 432 100T341 7T226 -28Q201 -28 188 -18Z" />
<glyph unicode="&#xe0;" glyph-name="agrave" horiz-adv-x="508" d="M109 -6T68 37T26 153Q26 233 69 312T184 442T332 493Q378 493 413 481T483 450L395 34Q390 11 374 -2T337 -16Q320 -16 310 -7T299 19Q299 26 300 30L303 44Q274 19 242 7T179 -6Q109 -6 68
37ZM234 86T263 98T317 128L375 389Q348 401 315 401Q268 401 224 365T152 275T124 170Q124 125 144 106T203 86Q234 86 263 98ZM398 528T381 543L250 654Q225 675 225 701Q225 720 237 733T269 746Q281 746 294 740T318 724L438 605Q448 595 452 587T457 567Q457
551 446 540T418 528Q398 528 381 543Z" />
<glyph unicode="&#xe1;" glyph-name="aacute" horiz-adv-x="508" d="M109 -6T68 37T26 153Q26 233 69 312T184 442T332 493Q378 493 413 481T483 450L395 34Q390 11 374 -2T337 -16Q320 -16 310 -7T299 19Q299 26 300 30L303 44Q274 19 242 7T179 -6Q109 -6 68
37ZM234 86T263 98T317 128L375 389Q348 401 315 401Q268 401 224 365T152 275T124 170Q124 125 144 106T203 86Q234 86 263 98ZM310 528T299 539T288 567Q288 578 292 586T307 605L427 724Q437 734 450 740T476 746Q495 746 507 733T520 701Q520 675 495 654L364
543Q348 528 327 528Q310 528 299 539Z" />
<glyph unicode="&#xe2;" glyph-name="acircumflex" horiz-adv-x="508" d="M109 -6T68 37T26 153Q26 233 69 312T184 442T332 493Q378 493 413 481T483 450L395 34Q390 11 374 -2T337 -16Q320 -16 310 -7T299 19Q299 26 300 30L303 44Q274 19 242 7T179 -6Q109
-6 68 37ZM234 86T263 98T317 128L375 389Q348 401 315 401Q268 401 224 365T152 275T124 170Q124 125 144 106T203 86Q234 86 263 98ZM217 534T208 544T199 571Q199 598 225 617L367 717Q383 729 400 729Q408 729 417 724T433 711L501 615Q509 603 509 588Q509
568 492 551T456 534Q437 534 427 546L372 612L263 543Q262 542 255 538T233 534Q217 534 208 544Z" />
<glyph unicode="&#xe3;" glyph-name="atilde" horiz-adv-x="508" d="M109 -6T68 37T26 153Q26 233 69 312T184 442T332 493Q378 493 413 481T483 450L395 34Q390 11 374 -2T337 -16Q320 -16 310 -7T299 19Q299 26 300 30L303 44Q274 19 242 7T179 -6Q109 -6 68
37ZM234 86T263 98T317 128L375 389Q348 401 315 401Q268 401 224 365T152 275T124 170Q124 125 144 106T203 86Q234 86 263 98ZM190 549T183 556T175 574Q175 596 200 631Q229 671 262 690T327 709Q353 709 368 699T400 665Q417 640 425 632T445 623Q457 623 472
640T501 689Q513 717 542 717Q553 717 560 710T568 691Q568 666 534 621Q474 543 415 543Q375 543 341 589Q337 595 328 607T312 624T296 629Q266 629 236 572Q224 549 200 549Q190 549 183 556Z" />
<glyph unicode="&#xe4;" glyph-name="adieresis" horiz-adv-x="508" d="M109 -6T68 37T26 153Q26 233 69 312T184 442T332 493Q378 493 413 481T483 450L395 34Q390 11 374 -2T337 -16Q320 -16 310 -7T299 19Q299 26 300 30L303 44Q274 19 242 7T179 -6Q109 -6
68 37ZM234 86T263 98T317 128L375 389Q348 401 315 401Q268 401 224 365T152 275T124 170Q124 125 144 106T203 86Q234 86 263 98ZM242 565T228 578T213 612Q213 642 239 666T298 691Q320 691 335 677T350 642Q350 612 324 589T266 565Q242 565 228 578ZM416 565T402
578T388 612Q388 642 413 666T472 691Q494 691 509 677T524 642Q524 612 498 589T439 565Q416 565 402 578Z" />
<glyph unicode="&#xe5;" glyph-name="aring" horiz-adv-x="508" d="M109 -6T68 37T26 153Q26 233 69 312T184 442T332 493Q378 493 413 481T483 450L395 34Q390 11 374 -2T337 -16Q320 -16 310 -7T299 19Q299 26 300 30L303 44Q274 19 242 7T179 -6Q109 -6 68
37ZM234 86T263 98T317 128L375 389Q348 401 315 401Q268 401 224 365T152 275T124 170Q124 125 144 106T203 86Q234 86 263 98ZM299 525T273 549T246 612Q246 649 271 682T335 737T414 758Q454 758 481 733T508 671Q508 634 483 600T419 546T340 525Q299 525 273
549ZM391 609T409 622T428 651Q428 662 418 668T388 674Q363 674 345 661T326 632Q326 621 336 615T366 609Q391 609 409 622Z" />
<glyph unicode="&#xe6;" glyph-name="ae" horiz-adv-x="771" d="M24 200T44 255T97 358Q139 418 198 455T331 493Q388 493 426 474T467 453L463 433Q496 460 531 475T600 491Q654 491 690 471T742 420T759 362Q759 322 717 301L415 148Q422 114 452 97T519 79Q551
79 583 93T640 127Q660 143 677 143Q695 143 705 134T715 108Q715 84 692 64Q657 34 610 14T513 -6Q426 -6 381 47L378 34Q372 9 358 -2T326 -13Q308 -13 297 1T287 34L288 38Q264 20 234 7T177 -6Q107 -6 66 36T24 151Q24 200 44 255ZM124 133T141 107T198 80Q223
80 253 92T310 121L365 395Q341 407 313 407Q271 407 234 381T170 311Q124 233 124 173Q124 133 141 107ZM643 403T577 403Q540 403 506 383T448 326T417 241L661 364Q643 403 577 403Z" />
<glyph unicode="&#xe7;" glyph-name="ccedilla" horiz-adv-x="471" d="M262 403T221 367T151 280T123 185Q123 140 153 112T221 84Q260 84 289 99T344 141Q355 152 366 159T392 166Q408 166 419 156T430 129Q430 117 424 106T411 88Q377 53 330 27T235 -5Q232
-26 231 -33Q245 -35 261 -40Q306 -57 306 -99Q306 -144 272 -173T191 -202Q155 -202 134 -190T112 -154Q112 -138 123 -127T150 -115Q162 -115 169 -118T182 -129Q190 -140 205 -140Q217 -140 225 -131T234 -109Q234 -88 209 -83Q191 -80 185 -80H177Q154 -80
154 -61Q154 -57 161 -40T179 -3Q112 7 70 53T27 168Q27 240 71 316T184 443T319 494Q403 494 445 438Q461 416 461 400Q461 378 443 361T402 343Q382 343 373 355Q357 380 341 391T299 403Q262 403 221 367Z" />
<glyph unicode="&#xe8;" glyph-name="egrave" horiz-adv-x="492" d="M141 -6T86 44T31 182Q31 259 71 331T177 448T317 493Q372 493 408 473T462 422T479 364Q479 343 469 329T438 303L137 149Q141 118 173 101T245 84Q310 84 360 127Q380 143 397 143Q414 143
424 134T435 109Q435 95 430 85T412 64Q380 35 329 15T233 -6Q141 -6 86 44ZM375 383T355 394T305 405Q241 405 186 350Q160 324 145 291T127 232L382 361Q375 383 355 394ZM357 528T340 543L209 654Q184 675 184 701Q184 720 196 733T228 746Q240 746 253 740T277
724L397 605Q407 595 411 587T416 567Q416 551 405 540T377 528Q357 528 340 543Z" />
<glyph unicode="&#xe9;" glyph-name="eacute" horiz-adv-x="492" d="M141 -6T86 44T31 182Q31 259 71 331T177 448T317 493Q372 493 408 473T462 422T479 364Q479 343 469 329T438 303L137 149Q141 118 173 101T245 84Q310 84 360 127Q380 143 397 143Q414 143
424 134T435 109Q435 95 430 85T412 64Q380 35 329 15T233 -6Q141 -6 86 44ZM375 383T355 394T305 405Q241 405 186 350Q160 324 145 291T127 232L382 361Q375 383 355 394ZM269 528T258 539T247 567Q247 578 251 586T266 605L386 724Q396 734 409 740T435 746Q454
746 466 733T479 701Q479 675 454 654L323 543Q307 528 286 528Q269 528 258 539Z" />
<glyph unicode="&#xea;" glyph-name="ecircumflex" horiz-adv-x="492" d="M141 -6T86 44T31 182Q31 259 71 331T177 448T317 493Q372 493 408 473T462 422T479 364Q479 343 469 329T438 303L137 149Q141 118 173 101T245 84Q310 84 360 127Q380 143 397 143Q414
143 424 134T435 109Q435 95 430 85T412 64Q380 35 329 15T233 -6Q141 -6 86 44ZM375 383T355 394T305 405Q241 405 186 350Q160 324 145 291T127 232L382 361Q375 383 355 394ZM176 534T167 544T158 571Q158 598 184 617L326 717Q342 729 359 729Q367 729 376
724T392 711L460 615Q468 603 468 588Q468 568 451 551T415 534Q396 534 386 546L331 612L222 543Q221 542 214 538T192 534Q176 534 167 544Z" />
<glyph unicode="&#xeb;" glyph-name="edieresis" horiz-adv-x="492" d="M141 -6T86 44T31 182Q31 259 71 331T177 448T317 493Q372 493 408 473T462 422T479 364Q479 343 469 329T438 303L137 149Q141 118 173 101T245 84Q310 84 360 127Q380 143 397 143Q414
143 424 134T435 109Q435 95 430 85T412 64Q380 35 329 15T233 -6Q141 -6 86 44ZM375 383T355 394T305 405Q241 405 186 350Q160 324 145 291T127 232L382 361Q375 383 355 394ZM201 565T187 578T172 612Q172 642 198 666T257 691Q279 691 294 677T309 642Q309
612 283 589T225 565Q201 565 187 578ZM375 565T361 578T347 612Q347 642 372 666T431 691Q453 691 468 677T483 642Q483 612 457 589T398 565Q375 565 361 578Z" />
<glyph unicode="&#xec;" glyph-name="igrave" horiz-adv-x="242" d="M49 -6T38 5T26 33Q26 39 27 43L116 441Q120 461 138 475T176 490Q194 490 204 480T215 452Q215 445 214 441L125 43Q121 23 104 9T66 -6Q49 -6 38 5ZM235 528T218 543L87 654Q62 675 62 701Q62
720 74 733T106 746Q118 746 131 740T155 724L275 605Q285 595 289 587T294 567Q294 551 283 540T255 528Q235 528 218 543Z" />
<glyph unicode="&#xed;" glyph-name="iacute" horiz-adv-x="242" d="M49 -6T38 5T26 33Q26 39 27 43L116 441Q120 461 138 475T176 490Q194 490 204 480T215 452Q215 445 214 441L125 43Q121 23 104 9T66 -6Q49 -6 38 5ZM147 528T136 539T125 567Q125 578 129
586T144 605L264 724Q274 734 287 740T313 746Q332 746 344 733T357 701Q357 675 332 654L201 543Q185 528 164 528Q147 528 136 539Z" />
<glyph unicode="&#xee;" glyph-name="icircumflex" horiz-adv-x="242" d="M49 -6T38 5T26 33Q26 39 27 43L116 441Q120 461 138 475T176 490Q194 490 204 480T215 452Q215 445 214 441L125 43Q121 23 104 9T66 -6Q49 -6 38 5ZM54 534T45 544T36 571Q36 598 62
617L204 717Q220 729 237 729Q245 729 254 724T270 711L338 615Q346 603 346 588Q346 568 329 551T293 534Q274 534 264 546L209 612L100 543Q99 542 92 538T70 534Q54 534 45 544Z" />
<glyph unicode="&#xef;" glyph-name="idieresis" horiz-adv-x="242" d="M49 -6T38 5T26 33Q26 39 27 43L116 441Q120 461 138 475T176 490Q194 490 204 480T215 452Q215 445 214 441L125 43Q121 23 104 9T66 -6Q49 -6 38 5ZM79 565T65 578T50 612Q50 642 76 666T135
691Q157 691 172 677T187 642Q187 612 161 589T103 565Q79 565 65 578ZM253 565T239 578T225 612Q225 642 250 666T309 691Q331 691 346 677T361 642Q361 612 335 589T276 565Q253 565 239 578Z" />
<glyph unicode="&#xf0;" glyph-name="eth" horiz-adv-x="473" d="M464 586T437 573Q387 551 370 542Q402 490 423 431T444 315Q444 236 406 162T302 41T163 -5Q101 -5 63 32T25 131Q25 184 50 240T114 336Q153 375 204 399T315 432Q298 468 277 496Q220 466 209
460Q205 458 196 453T181 445T170 443Q156 443 148 450T139 471Q139 485 146 495T167 516Q194 534 230 552Q220 565 216 572T212 588Q212 610 229 627T269 645Q283 645 292 638T324 606Q326 604 326 603Q347 614 375 627Q412 644 434 644Q447 644 455 636T464 613Q464
586 437 573ZM227 87T266 119T327 199T350 295Q350 320 344 345Q291 344 246 328T170 276Q148 251 133 216T118 152Q118 122 135 105T182 87Q227 87 266 119Z" />
<glyph unicode="&#xf1;" glyph-name="ntilde" horiz-adv-x="543" d="M46 -6T35 8T27 40L113 446Q117 466 135 480T173 494Q189 494 199 484T210 457Q210 450 209 446L193 370Q234 430 283 461T384 493Q442 493 469 465T497 369Q497 307 477 217L439 42Q435 23
419 9T383 -6Q364 -6 353 8T345 41L380 207Q399 296 399 340Q399 374 388 387T355 400Q325 400 290 375T218 302Q187 261 170 222T140 128L122 44Q118 22 103 8T65 -6Q46 -6 35 8ZM199 549T192 556T184 574Q184 596 209 631Q238 671 271 690T336 709Q362 709 377
699T409 665Q426 640 434 632T454 623Q466 623 481 640T510 689Q522 717 551 717Q562 717 569 710T577 691Q577 666 543 621Q483 543 424 543Q384 543 350 589Q346 595 337 607T321 624T305 629Q275 629 245 572Q233 549 209 549Q199 549 192 556Z" />
<glyph unicode="&#xf2;" glyph-name="ograve" horiz-adv-x="516" d="M117 -6T73 43T28 171Q28 247 71 322T183 446T325 494Q374 494 411 471T468 407T488 316Q488 240 445 165T333 42T191 -6Q117 -6 73 43ZM252 83T293 115T360 198T386 296Q386 343 363 374T302
405Q259 405 218 371T152 286T126 185Q126 140 148 112T209 83Q252 83 293 115ZM396 528T379 543L248 654Q223 675 223 701Q223 720 235 733T267 746Q279 746 292 740T316 724L436 605Q446 595 450 587T455 567Q455 551 444 540T416 528Q396 528 379 543Z" />
<glyph unicode="&#xf3;" glyph-name="oacute" horiz-adv-x="516" d="M117 -6T73 43T28 171Q28 247 71 322T183 446T325 494Q374 494 411 471T468 407T488 316Q488 240 445 165T333 42T191 -6Q117 -6 73 43ZM252 83T293 115T360 198T386 296Q386 343 363 374T302
405Q259 405 218 371T152 286T126 185Q126 140 148 112T209 83Q252 83 293 115ZM308 528T297 539T286 567Q286 578 290 586T305 605L425 724Q435 734 448 740T474 746Q493 746 505 733T518 701Q518 675 493 654L362 543Q346 528 325 528Q308 528 297 539Z" />
<glyph unicode="&#xf4;" glyph-name="ocircumflex" horiz-adv-x="516" d="M117 -6T73 43T28 171Q28 247 71 322T183 446T325 494Q374 494 411 471T468 407T488 316Q488 240 445 165T333 42T191 -6Q117 -6 73 43ZM252 83T293 115T360 198T386 296Q386 343 363 374T302
405Q259 405 218 371T152 286T126 185Q126 140 148 112T209 83Q252 83 293 115ZM215 534T206 544T197 571Q197 598 223 617L365 717Q381 729 398 729Q406 729 415 724T431 711L499 615Q507 603 507 588Q507 568 490 551T454 534Q435 534 425 546L370 612L261 543Q260
542 253 538T231 534Q215 534 206 544Z" />
<glyph unicode="&#xf5;" glyph-name="otilde" horiz-adv-x="516" d="M117 -6T73 43T28 171Q28 247 71 322T183 446T325 494Q374 494 411 471T468 407T488 316Q488 240 445 165T333 42T191 -6Q117 -6 73 43ZM252 83T293 115T360 198T386 296Q386 343 363 374T302
405Q259 405 218 371T152 286T126 185Q126 140 148 112T209 83Q252 83 293 115ZM188 549T181 556T173 574Q173 596 198 631Q227 671 260 690T325 709Q351 709 366 699T398 665Q415 640 423 632T443 623Q455 623 470 640T499 689Q511 717 540 717Q551 717 558 710T566
691Q566 666 532 621Q472 543 413 543Q373 543 339 589Q335 595 326 607T310 624T294 629Q264 629 234 572Q222 549 198 549Q188 549 181 556Z" />
<glyph unicode="&#xf6;" glyph-name="odieresis" horiz-adv-x="516" d="M117 -6T73 43T28 171Q28 247 71 322T183 446T325 494Q374 494 411 471T468 407T488 316Q488 240 445 165T333 42T191 -6Q117 -6 73 43ZM252 83T293 115T360 198T386 296Q386 343 363 374T302
405Q259 405 218 371T152 286T126 185Q126 140 148 112T209 83Q252 83 293 115ZM240 565T226 578T211 612Q211 642 237 666T296 691Q318 691 333 677T348 642Q348 612 322 589T264 565Q240 565 226 578ZM414 565T400 578T386 612Q386 642 411 666T470 691Q492 691
507 677T522 642Q522 612 496 589T437 565Q414 565 400 578Z" />
<glyph unicode="&#xf7;" glyph-name="divide" horiz-adv-x="438" d="M221 323T211 333T201 361Q201 387 222 409T268 432Q284 432 294 421T305 393Q305 367 285 345T239 323Q221 323 211 333ZM75 197T64 208T53 235Q53 255 71 272T111 290H344Q361 290 372 280T383
254Q383 231 364 214T324 197H91Q75 197 64 208ZM150 55T140 66T130 94Q130 120 150 142T196 164Q212 164 223 153T234 126Q234 101 213 78T167 55Q150 55 140 66Z" />
<glyph unicode="&#xf8;" glyph-name="oslash" horiz-adv-x="517" d="M501 491T497 482T488 465L454 423Q487 374 487 310Q487 234 444 159T332 36T190 -12Q150 -12 118 3L104 -14Q95 -25 84 -31T61 -38Q45 -38 35 -27T24 -1Q24 15 44 40L57 56Q27 103 27 165Q27
241 70 316T182 440T324 488Q359 488 390 475L419 511Q438 535 462 535Q479 535 490 525T501 498Q501 491 497 482ZM125 159T129 146L326 395Q317 399 301 399Q258 399 217 365T151 280T125 179Q125 159 129 146ZM385 310T380 330L181 81Q197 77 208 77Q251 77
292 109T359 192T385 290Q385 310 380 330Z" />
<glyph unicode="&#xf9;" glyph-name="ugrave" horiz-adv-x="517" d="M97 -9T70 19T42 113Q42 175 62 270T109 443Q126 494 167 494Q186 494 196 485T206 460Q206 455 202 439Q176 355 158 280T139 147Q139 113 149 97T181 81Q216 81 253 97T307 127Q320 136 325
143T332 163L395 448Q399 468 415 481T452 494Q472 494 483 481T490 448L404 42Q400 22 383 8T346 -6Q328 -6 316 5T305 33L306 49Q282 24 241 8T152 -9Q97 -9 70 19ZM368 528T351 543L220 654Q195 675 195 701Q195 720 207 733T239 746Q251 746 264 740T288 724L408
605Q418 595 422 587T427 567Q427 551 416 540T388 528Q368 528 351 543Z" />
<glyph unicode="&#xfa;" glyph-name="uacute" horiz-adv-x="517" d="M97 -9T70 19T42 113Q42 175 62 270T109 443Q126 494 167 494Q186 494 196 485T206 460Q206 455 202 439Q176 355 158 280T139 147Q139 113 149 97T181 81Q216 81 253 97T307 127Q320 136 325
143T332 163L395 448Q399 468 415 481T452 494Q472 494 483 481T490 448L404 42Q400 22 383 8T346 -6Q328 -6 316 5T305 33L306 49Q282 24 241 8T152 -9Q97 -9 70 19ZM280 528T269 539T258 567Q258 578 262 586T277 605L397 724Q407 734 420 740T446 746Q465 746
477 733T490 701Q490 675 465 654L334 543Q318 528 297 528Q280 528 269 539Z" />
<glyph unicode="&#xfb;" glyph-name="ucircumflex" horiz-adv-x="517" d="M97 -9T70 19T42 113Q42 175 62 270T109 443Q126 494 167 494Q186 494 196 485T206 460Q206 455 202 439Q176 355 158 280T139 147Q139 113 149 97T181 81Q216 81 253 97T307 127Q320 136
325 143T332 163L395 448Q399 468 415 481T452 494Q472 494 483 481T490 448L404 42Q400 22 383 8T346 -6Q328 -6 316 5T305 33L306 49Q282 24 241 8T152 -9Q97 -9 70 19ZM187 534T178 544T169 571Q169 598 195 617L337 717Q353 729 370 729Q378 729 387 724T403
711L471 615Q479 603 479 588Q479 568 462 551T426 534Q407 534 397 546L342 612L233 543Q232 542 225 538T203 534Q187 534 178 544Z" />
<glyph unicode="&#xfc;" glyph-name="udieresis" horiz-adv-x="517" d="M97 -9T70 19T42 113Q42 175 62 270T109 443Q126 494 167 494Q186 494 196 485T206 460Q206 455 202 439Q176 355 158 280T139 147Q139 113 149 97T181 81Q216 81 253 97T307 127Q320 136
325 143T332 163L395 448Q399 468 415 481T452 494Q472 494 483 481T490 448L404 42Q400 22 383 8T346 -6Q328 -6 316 5T305 33L306 49Q282 24 241 8T152 -9Q97 -9 70 19ZM212 565T198 578T183 612Q183 642 209 666T268 691Q290 691 305 677T320 642Q320 612 294
589T236 565Q212 565 198 578ZM386 565T372 578T358 612Q358 642 383 666T442 691Q464 691 479 677T494 642Q494 612 468 589T409 565Q386 565 372 578Z" />
<glyph unicode="&#xfd;" glyph-name="yacute" horiz-adv-x="459" d="M30 -185T19 -175T8 -147Q8 -136 11 -128T24 -106L143 72L49 403Q42 428 42 436Q42 459 61 476T102 494Q116 494 126 485T139 464L219 185L406 464Q416 479 430 487T459 495Q476 495 487 484T498
456Q498 441 488 426L98 -154Q89 -167 76 -176T46 -185Q30 -185 19 -175ZM252 528T241 539T230 567Q230 578 234 586T249 605L369 724Q379 734 392 740T418 746Q437 746 449 733T462 701Q462 675 437 654L306 543Q290 528 269 528Q252 528 241 539Z" />
<glyph unicode="&#xfe;" glyph-name="thorn" horiz-adv-x="523" d="M6 -183T-5 -168T-12 -135L148 616Q153 637 169 651T206 665Q223 665 234 654T245 626Q245 620 244 616L204 429Q287 485 357 485Q424 485 458 442T493 328Q493 268 475 213T423 112Q384 60 331
31T220 1Q160 1 120 34L84 -135Q80 -154 62 -168T26 -183Q6 -183 -5 -168ZM303 98T350 155Q374 186 387 226T400 309Q400 350 383 372T335 395Q285 395 247 375T183 330L139 122Q195 98 235 98Q303 98 350 155Z" />
<glyph unicode="&#xff;" glyph-name="ydieresis" horiz-adv-x="459" d="M30 -185T19 -175T8 -147Q8 -136 11 -128T24 -106L143 72L49 403Q42 428 42 436Q42 459 61 476T102 494Q116 494 126 485T139 464L219 185L406 464Q416 479 430 487T459 495Q476 495 487
484T498 456Q498 441 488 426L98 -154Q89 -167 76 -176T46 -185Q30 -185 19 -175ZM184 565T170 578T155 612Q155 642 181 666T240 691Q262 691 277 677T292 642Q292 612 266 589T208 565Q184 565 170 578ZM358 565T344 578T330 612Q330 642 355 666T414 691Q436
691 451 677T466 642Q466 612 440 589T381 565Q358 565 344 578Z" />
<glyph unicode="&#x2013;" glyph-name="endash" horiz-adv-x="536" d="M61 195T50 206T39 234Q39 256 57 273T99 291H459Q476 291 486 281T497 254Q497 229 479 212T438 195H78Q61 195 50 206Z" />
<glyph unicode="&#x2014;" glyph-name="emdash" horiz-adv-x="806" d="M70 201T60 211T49 239Q49 261 68 279T109 297H719Q736 297 746 287T757 260Q757 236 740 219T698 201H88Q70 201 60 211Z" />
<glyph unicode="&#x2018;" glyph-name="quoteleft" horiz-adv-x="179" d="M138 547T126 559T114 588Q114 604 124 621L173 707Q185 728 198 737T227 746Q243 746 253 737T263 713Q263 700 255 686L228 641Q231 628 231 619Q231 593 207 570T157 547Q138 547 126 559Z" />
<glyph unicode="&#x2019;" glyph-name="quoteright" horiz-adv-x="179" d="M107 547T97 556T87 580Q87 593 95 607L122 652Q119 666 119 674Q119 700 143 723T193 746Q212 746 224 734T236 705Q236 689 226 672L177 586Q165 565 152 556T123 547Q107 547 97 556Z" />
<glyph unicode="&#x201a;" glyph-name="quotesinglbase" horiz-adv-x="179" d="M-31 -102T-41 -93T-51 -69Q-51 -56 -43 -42L-16 3Q-19 17 -19 25Q-19 51 5 74T55 97Q74 97 86 85T98 56Q98 40 88 23L39 -63Q27 -84 14 -93T-15 -102Q-31 -102 -41 -93Z" />
<glyph unicode="&#x201c;" glyph-name="quotedblleft" horiz-adv-x="351" d="M138 547T126 559T114 588Q114 604 124 621L173 707Q185 728 198 737T227 746Q243 746 253 737T263 713Q263 700 255 686L228 641Q231 628 231 619Q231 593 207 570T157 547Q138 547
126 559ZM310 547T298 559T286 588Q286 604 296 621L345 707Q357 728 370 737T399 746Q415 746 425 737T435 713Q435 700 427 686L400 641Q403 628 403 619Q403 593 379 570T329 547Q310 547 298 559Z" />
<glyph unicode="&#x201d;" glyph-name="quotedblright" horiz-adv-x="329" d="M107 547T97 556T87 580Q87 593 95 607L122 652Q119 666 119 674Q119 700 143 723T193 746Q212 746 224 734T236 705Q236 689 226 672L177 586Q165 565 152 556T123 547Q107 547 97
556ZM257 547T247 556T237 580Q237 593 245 607L272 652Q269 666 269 674Q269 700 293 723T343 746Q362 746 374 734T386 705Q386 689 376 672L327 586Q315 565 302 556T273 547Q257 547 247 556Z" />
<glyph unicode="&#x201e;" glyph-name="quotedblbase" horiz-adv-x="330" d="M-27 -87T-37 -78T-47 -54Q-47 -41 -39 -27L-12 18Q-15 32 -15 40Q-15 66 9 89T59 112Q78 112 90 100T102 71Q102 55 92 38L43 -48Q31 -69 18 -78T-11 -87Q-27 -87 -37 -78ZM123 -87T113
-78T103 -54Q103 -41 111 -27L138 18Q135 32 135 40Q135 66 159 89T209 112Q228 112 240 100T252 71Q252 55 242 38L193 -48Q181 -69 168 -78T139 -87Q123 -87 113 -78Z" />
<glyph unicode="&#x2022;" glyph-name="bullet" horiz-adv-x="335" d="M98 143T75 166T51 226Q51 241 53 247Q62 289 99 319T179 350Q216 350 239 327T263 269Q263 258 260 246Q251 203 215 173T135 143Q98 143 75 166Z" />
<glyph unicode="&#x2039;" glyph-name="guilsinglleft" horiz-adv-x="322" d="M180 69T170 81L47 214Q38 224 38 240Q38 254 45 267T63 287L254 426Q272 440 290 440Q307 440 318 429T329 401Q329 374 304 355L149 243L239 146Q251 134 251 120Q251 99 236 84T199
69Q180 69 170 81Z" />
<glyph unicode="&#x203a;" glyph-name="guilsinglright" horiz-adv-x="318" d="M28 70T17 81T5 109Q5 123 12 135T30 154L168 257L69 362Q57 374 57 388Q57 410 72 425T109 440Q118 440 124 438T137 428L267 290Q282 275 282 258Q282 247 275 235T256 214L84 85Q73
77 65 74T44 70Q28 70 17 81Z" />
</font>
</defs>
</svg>
