<?xml version="1.0" encoding="utf-8"?>
<svg viewBox="0 0 124.44 144.00" id="svg2" version="1.1" xmlns="http://www.w3.org/2000/svg">
  <defs id="defs4">
    <style type="text/css" id="style6">
    line, polyline, path, rect, circle {
      fill: none;
      stroke: #000000;
      stroke-linecap: round;
      stroke-linejoin: round;
      stroke-miterlimit: 10.00;
    }
  </style>
  </defs>
  <rect width="100%" height="100%" style="stroke: none; fill: none;" id="rect8"/>
  <rect x="0.00" y="0.14" width="124.44" height="143.71" style="stroke-width: 1.07; stroke: none;" clip-path="url(#cpMHwxMjQuNDQxfDE0My44NTd8MC4xNDMxMzc=)" id="rect15"/>
  <rect x="-0.14" y="0.14" width="124.58" height="143.85" style="stroke-width: 1.07; stroke: none;" clip-path="url(#cpMHwxMjQuNDQxfDE0My45OTd8MC4xNDMxMzc=)" id="rect27"/>
  <polyline points="2.285 37.429 2.285 106.799 62.105 141.486 121.926 106.799 121.926 37.429 62.105 2.743 2.285 37.429" style="stroke: rgb(0, 102, 153); stroke-width: 4; fill: rgb(224, 224, 224); fill-opacity: 0.5;" clip-path="url(#cpMHwxMjQuNDQxfDE0My45OTd8MC4xNDMxMzc=)" id="polyline29"/>
  <g transform="matrix(0.300731, 0, 0, 0.295766, -4.975933, 6.780421)">
    <g>
      <g>
        <path fill-rule="evenodd" clip-rule="evenodd" d="M301.335,71.954c0.675,8.307,16.013,20.159,15.946,29.233&#10;&#9;&#9;&#9;&#9;C309.318,94.056,300.283,84.049,301.335,71.954z" style="stroke: none; fill: rgb(0, 102, 153);"/>
      </g>
      <g>
        <path d="M234.89,73.282c13.753,3.964,19.167,16.269,29.235,23.92c-0.032,1.292-1.632,1.031-2.657,1.33&#10;&#9;&#9;&#9;&#9;c0.438,4.879,9.451,1.179,9.302,6.645c-2.879,2.991-4.526-1.102-9.302,0C256.984,90.166,243.484,84.172,234.89,73.282z" style="stroke: none; fill: rgb(0, 102, 153);"/>
      </g>
      <g>
        <path d="M282.731,89.23c5.05,0.03,4.839,6.917-1.33,5.312C280.842,91.766,282.314,91.026,282.731,89.23z" style="stroke: none; fill: rgb(0, 102, 153);"/>
      </g>
      <g>
        <path d="M246.85,93.216c1.064,0.702,2.161,1.385,3.986,1.327c-2.095,8.091-9.717,10.652-15.946,14.621&#10;&#9;&#9;&#9;&#9;c-4.194,7.316-8.554,14.476-15.944,18.602c-3.491,5.814-4.477,14.129-13.291,14.621&#10;&#9;&#9;&#9;&#9;C213.151,119.755,233.525,110.012,246.85,93.216z" style="stroke: none; fill: rgb(0, 102, 153);"/>
      </g>
      <g>
        <path d="M278.746,99.86c4.244-1.144,4.108,2.092,6.645,2.659C284.349,105.569,277.165,103.807,278.746,99.86z" style="stroke: none; fill: rgb(0, 102, 153);"/>
      </g>
      <g>
        <path d="M249.509,103.847c-1.966,8.661-9.237,12.023-11.962,19.934&#10;&#9;&#9;&#9;&#9;C229.518,115.009,242.489,108.57,249.509,103.847z" style="stroke: none; fill: rgb(0, 102, 153);"/>
      </g>
      <g>
        <path d="M264.125,110.491c-1.301,3.129-0.431,8.433-5.312,7.975C256.341,115.602,258.609,109.428,264.125,110.491&#10;&#9;&#9;&#9;&#9;z" style="stroke: none; fill: rgb(0, 102, 153);"/>
      </g>
      <g>
        <path d="M266.783,110.491c2.145-0.374,2.284,1.257,3.986,1.33c-0.164,3.384-1.93,5.151-5.312,5.314&#10;&#9;&#9;&#9;&#9;C264.357,113.378,267.333,113.693,266.783,110.491z" style="stroke: none; fill: rgb(0, 102, 153);"/>
      </g>
      <g>
        <path d="M250.836,111.821c5.657-0.401,1.351,7.084,1.332,9.3C246.666,120.874,247.773,113.958,250.836,111.821z" style="stroke: none; fill: rgb(0, 102, 153);"/>
      </g>
      <g>
        <path d="M285.391,117.136c0.193-3.308,4.504-0.392,5.312,0c0.562,2.774-0.914,3.52-1.327,5.317&#10;&#9;&#9;&#9;&#9;C285.707,123.021,288.128,117.5,285.391,117.136z" style="stroke: none; fill: rgb(0, 102, 153);"/>
      </g>
      <g>
        <path d="M294.69,123.78c4.828,1.811,7.025,6.262,9.302,10.63c-5.578,0.699-7.424-2.32-11.957-2.655&#10;&#9;&#9;&#9;&#9;C291.27,127.454,292.435,125.067,294.69,123.78z" style="stroke: none; fill: rgb(0, 102, 153);"/>
      </g>
      <g>
        <path d="M254.823,138.399c-3.753,10.535-16.406,2.418-15.944-6.645&#10;&#9;&#9;&#9;&#9;C244.213,120.365,257.213,131.67,254.823,138.399z" style="stroke: none; fill: rgb(0, 102, 153);"/>
      </g>
      <g>
        <path d="M322.599,126.438c6.047,0.362,1.024,8.886,0,10.631c-3.894,0.681-7.493-4.219-6.645,2.658&#10;&#9;&#9;&#9;&#9;c-4.944,0.515-2.466-6.405-6.645-6.645c1.753-2.681,4.359-4.495,7.972-5.317c0.167,2.382-1.632,2.804-1.327,5.317&#10;&#9;&#9;&#9;&#9;C321.539,134.234,320.396,128.671,322.599,126.438z" style="stroke: none; fill: rgb(0, 102, 153);"/>
      </g>
      <g>
        <path d="M282.731,129.098c4.245-1.147,4.108,2.092,6.645,2.657c0.206,3.302-2.092,4.11-2.659,6.645&#10;&#9;&#9;&#9;&#9;c-5.066-4.837-16.092-3.407-25.249,1.328c-1.03-3.405-1.329-7.533-3.987-9.303C262.723,125.234,278.377,138.748,282.731,129.098z&#10;&#9;&#9;&#9;&#9;" style="stroke: none; fill: rgb(0, 102, 153);"/>
      </g>
      <g>
        <path d="M329.243,129.098c3.261,3.818,10.983,3.188,10.63,10.63C331.305,141.648,327.648,133.073,329.243,129.098&#10;&#9;&#9;&#9;&#9;z" style="stroke: none; fill: rgb(0, 102, 153);"/>
      </g>
      <g>
        <path d="M220.271,142.387c-0.47-1.868-2.342-0.114-2.658,1.327c-3.32-4.285,4.017-9.22,5.317-13.289&#10;&#9;&#9;&#9;&#9;c1.808,6.903,4.761-0.075,10.63,0c0,3.098,0,6.2,0,9.303c-7.352,3.718-7.407,14.744-17.274,15.948&#10;&#9;&#9;&#9;&#9;C217.458,148.12,217.78,147.73,220.271,142.387z" style="stroke: none; fill: rgb(0, 102, 153);"/>
      </g>
      <g>
        <path d="M300.006,138.399c0.55,3.2-2.426,2.884-1.326,6.645c-4.021-0.853-7.678-2.077-7.977-6.645&#10;&#9;&#9;&#9;&#9;C293.217,135.76,296.982,137.752,300.006,138.399z" style="stroke: none; fill: rgb(0, 102, 153);"/>
      </g>
      <g>
        <path d="M303.992,138.399c5.511,4.334,9.803,3.413,13.289,7.973c1.441-0.329,0.9-2.644,2.658-2.658&#10;&#9;&#9;&#9;&#9;c11.963,8.736,19.569,13.904,34.552,19.934c1.025-5.01-1.62-6.352-1.329-10.631c-10.537,4.915-13.592-8.327-22.592-9.303&#10;&#9;&#9;&#9;&#9;c8.376-4.804,12.01,6.565,18.606,7.975c3.138-1.95-5.233-3.519-2.659-9.302c10.965,0.725,13.271,16.62,10.631,26.578&#10;&#9;&#9;&#9;&#9;c-3.977-0.014-5.581-2.391-6.645-5.317c-9.633,4.696-21.278-6.645-26.578-14.616c-6.328,0.817-16.396-0.844-22.591-3.987&#10;&#9;&#9;&#9;&#9;C301.9,142.51,305.139,142.637,303.992,138.399z" style="stroke: none; fill: rgb(0, 102, 153);"/>
      </g>
      <g>
        <path d="M196.352,208.832c-2.783,12.383-6.948,30.107-19.933,27.904c-0.208-3.308,2.086-4.107,2.657-6.645&#10;&#9;&#9;&#9;&#9;c-0.58-1.972-1.703,0.524-3.986,0c1.379-5.713,2.602-11.569,5.316-15.947c1.891,4.144,4.098,0.839,6.645-1.327&#10;&#9;&#9;&#9;&#9;c-0.02-3.728-3.627,3.165-2.657-2.658C188.779,210.102,191.867,204.731,196.352,208.832z" style="stroke: none; fill: rgb(0, 102, 153);"/>
      </g>
      <g>
        <path d="M204.326,224.777c4.964,4.787,7.475,12.012,17.274,11.959c-1.038,5.599-1.805,11.481-6.645,13.289&#10;&#9;&#9;&#9;&#9;c-4.712-4.148-13.849-3.87-17.274-9.302C196.463,231.981,203.088,231.079,204.326,224.777z" style="stroke: none; fill: rgb(0, 102, 153);"/>
      </g>
      <g>
        <path d="M161.801,240.724c4.886-1.228,2.418,7.008,1.329,7.975c0.317,3.425,2.282-1.828,5.315,0&#10;&#9;&#9;&#9;&#9;c2.141,8.265,1.172,22.734-10.63,21.261c-0.749-1.919-2.077-3.246-3.987-3.984C158.127,259.192,160.389,250.392,161.801,240.724z&#10;&#9;&#9;&#9;&#9;" style="stroke: none; fill: rgb(0, 102, 153);"/>
      </g>
      <g>
        <path fill-rule="evenodd" clip-rule="evenodd" d="M180.406,252.686c7.828-2.461,9.369,8.276,11.959,6.645&#10;&#9;&#9;&#9;&#9;c2.059,7.04-4.104,10.925-1.327,21.258c-6.929-1.046-9.636-6.308-17.276-6.642C172.814,263.698,182.448,264.032,180.406,252.686z&#10;&#9;&#9;&#9;&#9;" style="stroke: none; fill: rgb(0, 102, 153);"/>
      </g>
      <g>
        <g>
          <path d="M330.57,118.466c-3.727,1.301,1.934,3.543-1.327,5.314c-6.333-2.522-5.806-11.909-14.619-11.959&#10;&#9;&#9;&#9;&#9;&#9;c2.376-5.536-4.236-12.233-9.3-14.619c0.215-1.561,2.416-1.121,3.985-1.327c-1.207-2.347-2.971-4.122-5.317-5.317&#10;&#9;&#9;&#9;&#9;&#9;c-5.516-1.523-5.182,2.795-9.302,2.658c-0.349-8.481,2.253-14.493-1.329-23.919c-2.699,5.269-5.773,10.164-9.303,14.616&#10;&#9;&#9;&#9;&#9;&#9;c0.674,3.756,8.481,0.378,6.645,6.645c-5.045-0.269-5.045-5.59-10.631-5.314c-4.465,1.214-0.654,2.47-1.326,6.645&#10;&#9;&#9;&#9;&#9;&#9;c-2.984,1.014-4.236-6.138-6.645-1.33c-3.427-0.322,1.826-2.29,0-5.314c-7.394,5.213-13.518-5.61-19.934-9.302&#10;&#9;&#9;&#9;&#9;&#9;c6.961,0.114,8.635,5.537,13.289,7.972c4.521-0.606,10.09-4.884,14.615-1.327c10.93-6.091,5.483-22.816,0-30.565&#10;&#9;&#9;&#9;&#9;&#9;c2.707-2.161,5.428-4.318,9.304-5.316c4.47,2.149,4.161,5.12,10.63,2.659c5.964,10.735,2.004,22.468,7.974,31.891&#10;&#9;&#9;&#9;&#9;&#9;c2.45,3.875,5.531,3.468,9.302,6.645c15.284,12.89,15.645,37.159,29.236,53.156C340.81,133.917,334.068,127.812,330.57,118.466z&#10;&#9;&#9;&#9;&#9;&#9; M317.281,101.188c0.066-9.074-15.271-20.927-15.946-29.233C300.283,84.049,309.318,94.056,317.281,101.188z" style="stroke: none; fill: rgb(0, 102, 153);"/>
        </g>
      </g>
      <g>
        <path fill-rule="evenodd" clip-rule="evenodd" d="M288.046,107.832c12.984-11.021,24.608,6.172,33.223,11.962&#10;&#9;&#9;&#9;&#9;c-2.673,2.577-8.421-3.032-10.632-5.317C299.905,114.635,290.162,118.177,288.046,107.832z" style="stroke: none; fill: rgb(0, 102, 153);"/>
      </g>
      <g>
        <path d="M274.757,106.505c6.322-1.195,11.864,3.116,9.302,6.645c-4.087,0.986-2.553-3.651-6.645-2.658&#10;&#9;&#9;&#9;&#9;c-3.894,1.134,1.731,3.34,0,6.645c2.391,0.167,2.809-1.631,5.317-1.327c-1.384,3.762-1.384,5.537,0,9.302&#10;&#9;&#9;&#9;&#9;c-6.929,2.054-5.233-4.508-7.975-6.645c-2.968,0.568-0.542,6.549-1.329,9.3c-4.557-1.018-7.475-3.674-5.315-7.972&#10;&#9;&#9;&#9;&#9;C277.094,119.175,272.316,112.891,274.757,106.505z" style="stroke: none; fill: rgb(0, 102, 153);"/>
      </g>
      <g>
        <path d="M305.324,129.098c-1.033-1.187-1.429-3.002-1.332-5.317C315.233,122.088,318.234,121.557,305.324,129.098&#10;&#9;&#9;&#9;&#9;z" style="stroke: none; fill: rgb(0, 102, 153);"/>
      </g>
      <g>
        <path d="M209.641,145.044c0.61,4.151-2.84,4.245-6.645,3.987c-0.532,3.186,6.048-0.738,3.986,3.985&#10;&#9;&#9;&#9;&#9;c-2.51,1.473-6.283,1.692-9.301,2.659c0.414,1.805,3.33,1.096,5.314,1.327c-10.508,17.402-16.748,39.062-30.564,53.156&#10;&#9;&#9;&#9;&#9;c-9.459,19.2-19.995,43.074-34.55,59.8c-8.769,10.081-25.599,11.865-31.896,25.248c-14.119,0.943-19.767,10.348-27.905,17.273&#10;&#9;&#9;&#9;&#9;c3.942,3.674,2.892,11.256,1.327,17.276c-4.816,1.277-1.346-5.73-3.986-6.645c-3.273,1.163-2.978,5.889-7.973,5.317&#10;&#9;&#9;&#9;&#9;c5.033-10.031,9.369-20.745,17.276-27.908c-0.146-3.249-4.395-0.284-3.987,1.33c10.116-12.659,37.11-26.42,51.826-34.55&#10;&#9;&#9;&#9;&#9;c-0.863-1.351-3.05-1.377-2.657-3.987c14.52-8.511,21.063-25.008,27.908-41.194c3.62,0.114,2.679-2.215,5.314,0&#10;&#9;&#9;&#9;&#9;c-2.276-14.813,17.408-31.074,22.591-43.854C190.727,165.924,195.336,146.249,209.641,145.044z" style="stroke: none; fill: rgb(0, 102, 153);"/>
      </g>
      <g>
        <path d="M205.654,199.528c0.372-2.151-1.262-2.294-1.328-3.985c-3.504,3.217-7.842,5.168-11.961,1.327&#10;&#9;&#9;&#9;&#9;c3.759-12.19,8.438-23.461,18.605-29.237c1.938,12.393,2.365,29.501-9.304,37.212&#10;&#9;&#9;&#9;&#9;C201.292,201.365,202.15,199.129,205.654,199.528z" style="stroke: none; fill: rgb(0, 102, 153);"/>
      </g>
      <g>
        <path d="M228.245,215.476c8.555-12.154-11.022-16.65-6.645-33.222c5.188,2.887,5.631,4.667,11.96,1.327&#10;&#9;&#9;&#9;&#9;c0.567,2.535,2.865,3.337,2.659,6.645c4.136-3.838,4.382-11.571,7.972-15.948c-2.259-3.454-3.107,5.65-6.645,5.317&#10;&#9;&#9;&#9;&#9;c-5.555-1.524-7.492-6.675-13.289-7.973c-3.612,1.214,3.537,2.47,1.332,6.645c-5.296-0.913-3.796-8.621-6.645-11.961&#10;&#9;&#9;&#9;&#9;c1.977-4.671,6.007-7.286,10.63-9.303c5.695,0.944,5.836,7.453,11.959,7.975c3.018-5.722-4.585-12.211-5.314-18.605&#10;&#9;&#9;&#9;&#9;c3.428-2.128,10.307,1.484,13.289,3.986c1.397,6.718-3.032,7.603-2.659,13.289c10.903-9.51-0.083-20.285,14.618-21.261&#10;&#9;&#9;&#9;&#9;c-32.53,50.792-31.91,129.881-63.786,183.383c-10.732,18.023-22.859,28.729-21.263,54.486&#10;&#9;&#9;&#9;&#9;c-6.622-8.306-0.644-23.672,2.657-30.565c-7.549-4.86-14.347-10.456-13.289-23.921c5.648,0.334,7.152-3.478,13.289-2.657&#10;&#9;&#9;&#9;&#9;c0.964,3.621-2.635,2.681-2.657,5.317c4.734-4.57,19.069,0.475,19.933-7.975c-1.112-3.759-8.156-1.579-10.631-3.987&#10;&#9;&#9;&#9;&#9;c2.502-6.791,2.253-16.354,3.987-23.921c9.176,2.637,15.706-0.311,21.263-3.984c-2.193-7.852-4.92-7.392-10.633-10.629&#10;&#9;&#9;&#9;&#9;c-0.531-6.296,2.375-9.146,1.329-15.946c15.322-2.689,23.443-11.669,23.923-31.896c-4.549-6.967-9.387-13.649-14.619-19.933&#10;&#9;&#9;&#9;&#9;c0.104-4.329,1.7-7.16,5.315-7.972C210.453,210.941,234.475,203.65,228.245,215.476z" style="stroke: none; fill: rgb(0, 102, 153);"/>
      </g>
    </g>
  </g>
  <text x="8.134" y="104.286" transform="matrix(0.866025, -0.5, 0.5, 0.866026, -49.563812, -33.882568)" style="fill: rgb(0, 102, 153); font-family: sans-serif; font-size: 19px; font-weight: bold; letter-spacing: 0.3px; white-space: pre;">ggiraph</text>
  <ellipse cx="76.4" cy="74.686" rx="1.714" ry="1.714" style="fill: rgb(170, 153, 97);"/>
  <ellipse transform="matrix(1, 0, 0, 0.999996, 3.170998, -1.648983)" cx="90.629" cy="72.8" rx="1.714" ry="1.714" style="fill: rgb(0, 102, 153);"/>
  <ellipse transform="matrix(1, 0, 0, 0.999996, -3.600426, 8.350055)" cx="90.629" cy="72.8" rx="1.714" ry="1.714" style="fill: rgb(170, 153, 97);"/>
  <ellipse transform="matrix(1, 0, 0, 0.9999978542327881, 19.542429024832586, 9.02871982029506)" cx="90.629" cy="72.8" rx="1.714" ry="1.714" style="fill: rgb(170, 153, 97);"/>
  <ellipse transform="matrix(1, 0, 0, 0.9999978542327881, 17.713857596261157, -11.999851608276368)" cx="90.629" cy="72.8" rx="1.714" ry="1.714" style="fill: rgb(170, 153, 97);"/>
  <ellipse transform="matrix(1, 0, 0, 0.9999978542327881, 5.371000453404019, -13.599851608276367)" cx="90.629" cy="72.8" rx="1.714" ry="1.714" style="fill: rgb(170, 153, 97);"/>
  <ellipse transform="matrix(1, 0, 0, 0.999996, -16.571449, 26.754383)" cx="90.629" cy="72.8" rx="1.714" ry="1.714" style="fill: rgb(170, 153, 97);"/>
  <path d="M 101.492 78.753 C 101.603 78.85 101.628 78.961 101.568 79.086 C 101.507 79.215 101.402 79.279 101.252 79.279 L 99.207 79.279 L 100.282 81.579 C 100.318 81.66 100.318 81.737 100.282 81.816 C 100.247 81.893 100.187 81.949 100.101 81.984 L 99.153 82.347 C 99.064 82.379 98.977 82.379 98.891 82.347 C 98.805 82.314 98.742 82.26 98.704 82.183 L 97.681 79.999 L 96.011 81.506 C 95.943 81.568 95.864 81.598 95.77 81.598 C 95.727 81.598 95.685 81.59 95.642 81.574 C 95.5 81.519 95.428 81.424 95.428 81.289 L 95.428 74.023 C 95.428 73.888 95.5 73.792 95.642 73.738 C 95.685 73.722 95.727 73.714 95.77 73.714 C 95.867 73.714 95.948 73.745 96.011 73.806 Z" style="stroke: none; fill: rgb(0, 102, 153);"/>
  <ellipse cx="76.4" cy="74.686" rx="1.714" ry="1.714" style="fill: rgb(170, 153, 97);" transform="matrix(1, 0, 0, 1, -6.9142926897321395, 11.713999720982143)"/>
  <ellipse cx="76.4" cy="74.686" rx="1.714" ry="1.714" style="fill: rgb(170, 153, 97);" transform="matrix(1, 0, 0, 1, 8.39999302455357, 16.971142578125)"/>
  <ellipse cx="76.4" cy="74.686" rx="1.714" ry="1.714" style="fill: rgb(170, 153, 97);" transform="matrix(1, 0, 0, 1, 23.028564453125, 20.856856863839287)"/>
  <text x="0" y="50" transform="matrix(0.866025, -0.5, 0.5, 0.866026, 46.601307, 88.062561)" style="fill: rgb(0, 102, 153); font-family: sans-serif; font-size: 7px; white-space: pre;">www.ardata.fr</text>
</svg>